<svg width="138" height="32" viewBox="0 0 138 32" fill="none" xmlns="http://www.w3.org/2000/svg">
<path d="M15.3331 15.9688L4.53579 17.4553C4.91889 20.5857 7.06029 22.7358 10.669 22.7358C11.9467 22.7358 13.4809 22.514 14.5344 21.693L14.7585 21.8504C14.791 22.04 14.791 22.2296 14.791 22.4192C14.791 25.3278 11.9485 25.9289 9.61551 25.9289C4.12016 25.9289 0 22.3566 0 16.7576C0 11.6345 3.22565 8.03003 8.43367 8.03003C12.5538 8.03003 15.4307 10.5916 15.4307 14.6701C15.4307 15.1119 15.3982 15.5234 15.3349 15.967L15.3331 15.9688ZM8.01804 10.7186C5.49354 10.7186 4.66409 12.5521 4.47254 14.8293L10.9256 13.849C10.9256 12.1729 9.99861 10.7186 8.01804 10.7186Z" fill="#BDBA33"/>
<path d="M24.4387 31.9999C21.9467 31.9999 20.3185 30.8301 20.3185 28.7747C20.3185 28.5851 20.3185 28.3955 20.3511 28.2059L20.5752 28.0485C21.2781 28.6495 22.4925 28.9017 23.6418 28.9017C26.9957 28.9017 28.8498 27.3526 28.8498 23.9378V21.6606H28.754C27.124 23.4942 25.2085 25.4243 22.5882 25.4243C21.7263 25.4243 20.8625 25.1077 20.2246 24.5066C19.1385 23.4942 18.9795 22.0077 18.9795 20.6177V8.53613H23.7068V19.4139C23.7068 20.2993 24.1225 21.217 25.176 21.217C26.5494 21.217 27.8595 19.5409 28.754 18.5606V8.53613H33.4814V23.0505C33.4814 28.2685 29.6485 31.9999 24.4405 31.9999H24.4387Z" fill="#BDBA33"/>
<path d="M42.9131 25.1506L37.3473 8.65776C37.2027 8.26422 37.3834 8.04956 37.781 8.04956H41.5759C41.865 8.04956 42.118 8.19267 42.2264 8.47887L45.7683 19.8557L49.6355 8.47887C49.7439 8.19267 49.9969 8.04956 50.286 8.04956H54.0809C54.3701 8.04956 54.6231 8.19267 54.7315 8.47887L58.5625 19.8557L62.1044 8.47887C62.2128 8.19267 62.502 8.04956 62.7911 8.04956H66.5498C66.9474 8.04956 67.1281 8.26422 66.9835 8.65776L61.4538 25.1506C61.3454 25.4368 61.0924 25.5799 60.8033 25.5799H56.7916C56.5024 25.5799 56.2494 25.4368 56.141 25.1506L52.1654 13.7737L48.226 25.1506C48.1175 25.4368 47.8645 25.5799 47.5754 25.5799H43.5637C43.2745 25.5799 43.0216 25.4368 42.9131 25.1506Z" fill="black"/>
<path d="M91.377 25.0434V8.58632C91.377 8.26433 91.5938 8.04968 91.9191 8.04968H95.6778C96.0031 8.04968 96.1838 8.19278 96.2199 8.62209L96.3645 10.876C96.9789 9.01563 98.0993 7.62036 100.196 7.62036C101.027 7.62036 101.533 7.83502 101.822 8.04968C102.075 8.22856 102.147 8.44321 102.147 8.7652V11.9135C102.147 12.3428 101.894 12.4501 101.424 12.3428C101.027 12.2355 100.629 12.1639 100.123 12.1639C97.6656 12.1639 96.3645 13.7739 96.3645 16.2782V25.0434C96.3645 25.3653 96.1477 25.58 95.8224 25.58H91.9191C91.5938 25.58 91.377 25.3653 91.377 25.0434Z" fill="black"/>
<path d="M105.364 25.0433V0.536643C105.364 0.214657 105.581 0 105.906 0H109.846C110.171 0 110.388 0.214657 110.388 0.536643V15.1333L116.207 8.33585C116.387 8.12119 116.604 8.04964 116.857 8.04964H121.303C121.773 8.04964 121.881 8.33585 121.592 8.69361L115.592 15.4553L122.532 24.936C122.785 25.2938 122.64 25.58 122.206 25.58H118.014C117.725 25.58 117.544 25.5084 117.363 25.258L112.593 18.854L110.388 21.3226V25.0433C110.388 25.3653 110.171 25.58 109.846 25.58H105.906C105.581 25.58 105.364 25.3653 105.364 25.0433Z" fill="black"/>
<path d="M124.736 23.1114C124.519 22.861 124.555 22.4675 124.808 22.0739L126.073 20.3209C126.363 19.8916 126.688 19.9631 126.977 20.1778C128.459 21.2869 129.688 21.8951 131.061 21.8951C132.254 21.8951 133.049 21.43 133.049 20.4282C133.049 19.5696 132.507 19.1761 131.206 18.6394L128.965 17.745C126.688 16.8506 125.098 15.348 125.098 12.9152C125.098 9.55227 127.989 7.62036 131.278 7.62036C133.591 7.62036 135.723 8.55054 137.205 10.3036C137.422 10.554 137.35 10.8402 137.169 11.0549L135.579 12.951C135.326 13.2372 135.073 13.2014 134.747 12.951C133.591 11.9851 132.579 11.4842 131.531 11.4842C130.374 11.4842 129.832 12.1282 129.832 12.8795C129.832 13.7381 130.555 14.2032 131.531 14.5609L134.025 15.5269C136.265 16.4213 138.036 17.9597 138 20.6429C137.964 24.1847 134.892 26.0093 131.35 26.0093C128.386 26.0093 126.146 24.7572 124.736 23.1114Z" fill="black"/>
<path d="M77.5 8C72.2525 8 68 12.2525 68 17.5C68 22.7475 72.2525 27 77.5 27C82.7475 27 87 22.7475 87 17.5C87 12.2525 82.7475 8 77.5 8ZM77.5 24.8454C73.4434 24.8454 70.1546 21.5566 70.1546 17.5C70.1546 13.4434 73.4434 10.1546 77.5 10.1546C81.5566 10.1546 84.8454 13.4434 84.8454 17.5C84.8454 21.5566 81.5566 24.8454 77.5 24.8454Z" fill="black"/>
<path d="M78.7335 22.9998C77.9438 22.9998 77.3651 22.4814 77.2354 22.3572L72.8206 18.3134C72.178 17.7407 72.0193 17.1408 72.0019 16.7409C71.9651 15.9139 72.4742 15.3412 72.5322 15.2791L72.5613 15.25C73.1419 14.6909 73.7129 14.5724 74.0883 14.5724C74.8857 14.5724 75.4412 15.0714 75.5999 15.2344L77.9864 17.3427C82.2018 7.86322 88.3044 5.27348 88.7418 5.09682C88.8482 5.05023 89.0069 4.99976 89.1773 4.99976C89.5237 4.99976 89.8237 5.2036 89.9437 5.52197C90.1779 6.14126 89.6476 6.613 88.976 7.21287C87.1547 8.83582 84.6792 12.668 84.6541 12.7049L84.6405 12.7243L84.627 12.7437C82.5367 15.5858 80.4676 21.8447 80.4464 21.9068L80.4038 22.0369L80.3186 22.1456C79.7631 22.8503 79.1457 22.9978 78.7277 22.9978L78.7335 22.9998Z" fill="#BDBA33"/>
<path d="M89.3644 5.58649C89.4673 5.58649 89.4673 5.71756 88.632 6.46227C86.6664 8.21582 84.0733 12.2452 84.0733 12.2452C81.8345 15.2916 79.6848 21.8431 79.6848 21.8431C79.3443 22.276 78.99 22.413 78.6792 22.413C78.121 22.413 77.6934 21.9722 77.6934 21.9722L73.1664 17.8236C72.0242 16.8048 72.917 15.8496 72.917 15.8496C73.2832 15.4961 73.6315 15.379 73.9304 15.379C74.5223 15.379 74.9281 15.8357 74.9281 15.8357L78.216 18.7391C82.5115 8.2476 89.2219 5.62621 89.2219 5.62621C89.2219 5.62621 89.309 5.58848 89.3644 5.58848M89.3644 3.99976C89.0615 3.99976 88.7943 4.08316 88.6142 4.16061C88.0461 4.39296 82.0186 7.02627 77.6459 16.1217L76.0188 14.6859C75.7476 14.4158 75.0053 13.7922 73.9285 13.7922C73.398 13.7922 72.6002 13.9511 71.8164 14.7077L71.7867 14.7355L71.759 14.7653C71.6244 14.9103 70.9513 15.6927 71.0028 16.8386C71.0285 17.3986 71.2403 18.2287 72.1034 19.0032L76.6027 23.126C76.8304 23.3464 77.6004 23.9998 78.6772 23.9998C79.5304 23.9998 80.3281 23.5827 80.9259 22.8261L81.1001 22.6057L81.1872 22.3376C81.207 22.274 83.2854 15.9906 85.348 13.1865L85.3777 13.1468L85.4035 13.1051C86.0923 12.0347 88.2064 8.96649 89.6831 7.64984C90.4135 6.99847 91.3221 6.1902 90.8866 5.04434C90.6451 4.40885 90.0473 3.99976 89.3624 3.99976H89.3644Z" fill="white"/>
</svg>
