<?xml version="1.0" encoding="utf-8"?>
<!-- Generator: Adobe Illustrator 16.0.0, SVG Export Plug-In . SVG Version: 6.00 Build 0)  -->
<!DOCTYPE svg PUBLIC "-//W3C//DTD SVG 1.1//EN" "http://www.w3.org/Graphics/SVG/1.1/DTD/svg11.dtd">
<svg version="1.1" id="Layer_1" xmlns="http://www.w3.org/2000/svg" xmlns:xlink="http://www.w3.org/1999/xlink" x="0px" y="0px"
	 width="150px" height="150px" viewBox="0 0 150 150" enable-background="new 0 0 150 150" xml:space="preserve">
<g>
	<path d="M25.474,60.231c1.664,0.521,3.421,0.847,4.974,1.595c5.883,2.834,9.091,9.245,7.999,15.67
		c-1.071,6.297-6.117,11.191-12.484,12.114c-0.166,0.022-0.326,0.104-0.488,0.158c-1.055,0-2.11,0-3.165,0
		c-0.164-0.053-0.323-0.128-0.491-0.156c-5.375-0.889-9.235-3.801-11.447-8.771c-0.596-1.34-0.841-2.834-1.248-4.259
		c0-1.056,0-2.11,0-3.165c0.056-0.194,0.132-0.384,0.167-0.581c0.937-5.443,3.951-9.287,8.996-11.475
		c1.266-0.55,2.678-0.763,4.023-1.131C23.364,60.231,24.418,60.231,25.474,60.231z M20.093,74.343
		c1.358,1.359,2.631,2.637,3.811,3.817c0.87-0.813,1.819-1.683,2.746-2.571c0.937-0.898,1.854-1.816,2.791-2.738
		c1.241,3.288-0.466,6.79-3.787,7.845c-3.222,1.021-6.747-0.935-7.554-4.189c-0.417-1.677-0.187-3.265,0.743-4.718
		c1.155-1.806,2.868-2.682,4.992-2.811c0-1.06,0-2.066,0-3.072c-4.231-0.088-8.171,3.197-8.897,7.364
		c-0.804,4.612,1.743,8.915,6.139,10.371c4.211,1.395,8.872-0.521,10.898-4.479c1.958-3.827,0.939-8.77-2.146-10.981
		c-2.046,1.872-4.071,3.725-6.13,5.607c-0.43-0.411-0.988-0.943-1.457-1.393C21.448,73.111,20.734,73.759,20.093,74.343z"/>
	<path d="M84.143,83.188c-0.171-0.59-0.148-0.974,0.561-1.002c0.724-0.031,0.996-0.5,0.996-1.186
		c-0.006-3.809-0.016-7.618,0.004-11.426c0.004-1.076-0.74-1.19-1.585-1.285c-0.021-0.266-0.044-0.514-0.063-0.731
		c0.089-0.073,0.134-0.141,0.179-0.141c3.392,0.065,6.807-0.092,10.164,0.274c3.347,0.366,5.605,2.739,6.142,5.684
		c0.649,3.582-0.587,6.816-3.237,8.487c-1.455,0.918-3.073,1.313-4.758,1.347c-2.665,0.054-5.331,0.021-7.997,0.021
		C84.431,83.229,84.316,83.207,84.143,83.188z M90.174,68.535c0,4.17-0.01,8.349,0.01,12.528c0.004,0.756,0.544,1.059,1.233,1.102
		c1.705,0.111,3.012-0.616,3.708-2.133c1.436-3.128,1.458-6.301-0.213-9.356C93.981,68.974,91.955,68.136,90.174,68.535z"/>
	<path d="M55.458,75.739c2.442,0,4.835,0,7.244,0c0.209,0.598,0.115,0.952-0.59,1.022c-0.711,0.071-0.963,0.547-0.953,1.232
		c0.019,1.113,0.033,2.228-0.016,3.337c-0.013,0.291-0.188,0.73-0.412,0.832c-3.434,1.579-6.955,1.979-10.381,0.134
		c-2.745-1.478-3.667-4.092-3.511-7.063c0.403-7.742,8.304-9.582,13.179-7.112c0.448,0.226,0.636,0.508,0.617,1.023
		c-0.04,1.048-0.012,2.098-0.012,3.147c-0.707,0.222-1.031,0.094-1.288-0.673c-0.306-0.915-0.768-1.887-1.444-2.542
		c-1.584-1.537-4.363-0.975-5.325,1.127c-1.574,3.437-1.471,6.942,0.226,10.328c0.697,1.389,2.121,1.964,3.544,1.722
		c0.511-0.089,0.767-0.28,0.745-0.854c-0.041-1.111-0.017-2.228-0.012-3.34c0.002-0.735-0.243-1.271-1.068-1.322
		C55.366,76.701,55.327,76.313,55.458,75.739z"/>
	<path d="M121.919,82.614c-0.181,0.205-0.359,0.583-0.546,0.587c-2.045,0.043-4.091,0.026-6.18,0.026c0-0.325,0-0.575,0-0.886
		c1.075,0.064,1.252-0.549,1.23-1.457c-0.05-2.167-0.041-4.337,0-6.504c0.012-0.632-0.137-1.044-0.727-1.327
		c-0.22-0.106-0.345-0.416-0.513-0.632c0.211-0.155,0.401-0.383,0.638-0.453c1.261-0.381,2.528-0.731,3.801-1.07
		c0.295-0.078,0.611-0.071,0.978-0.11c0,0.722,0,1.352,0,2.156c0.307-0.294,0.476-0.54,0.708-0.662
		c0.941-0.5,1.855-1.18,2.864-1.395c2.333-0.496,3.967,0.898,4.02,3.288c0.05,2.255,0.021,4.512,0.008,6.768
		c-0.003,0.695,0.036,1.307,0.942,1.398c0.133,0.016,0.371,0.367,0.328,0.461c-0.076,0.182-0.321,0.404-0.499,0.406
		c-1.988,0.029-3.979,0.019-6.009,0.019c-0.167-0.5-0.205-0.811,0.421-1c0.275-0.083,0.608-0.549,0.614-0.846
		c0.053-2.196,0.044-4.396,0.021-6.594c-0.012-1.128-0.543-1.599-1.662-1.516c-0.403,0.03-0.843,0.081-1.186,0.271
		c-0.264,0.146-0.561,0.518-0.566,0.794c-0.043,2.314,0.005,4.63-0.04,6.944c-0.017,0.876,0.517,1.011,1.193,1.084
		C121.813,82.451,121.866,82.532,121.919,82.614z"/>
	<path d="M101.773,77.311c0.019-3.827,2.701-6.557,6.414-6.526c3.715,0.031,6.239,2.524,6.22,6.146
		c-0.019,3.812-2.711,6.537-6.434,6.513C104.239,83.421,101.753,80.962,101.773,77.311z M110.062,77.488
		c-0.027-0.003-0.054-0.005-0.081-0.007c0-0.233,0.015-0.469-0.003-0.701c-0.04-0.642-0.028-1.294-0.155-1.918
		c-0.162-0.793-0.333-1.616-0.69-2.332c-0.533-1.074-1.776-1.032-2.336,0.037c-0.213,0.405-0.409,0.882-0.407,1.324
		c0.005,2.122,0.036,4.247,0.16,6.364c0.034,0.575,0.342,1.184,0.666,1.684c0.513,0.792,1.521,0.76,2.041-0.024
		c0.219-0.33,0.39-0.736,0.444-1.126C109.859,79.693,109.946,78.59,110.062,77.488z"/>
	<path d="M140.856,76.31c-2.403,0-4.732,0-7.048,0c-0.194,1.792,0.562,3.354,1.883,4.018c1.403,0.703,3.171,0.406,4.399-0.72
		c0.194-0.175,0.461-0.271,0.692-0.402c-0.008,0.287,0.056,0.604-0.037,0.862c-1.567,4.395-6.952,4.014-9.094,1.846
		c-1.813-1.834-2.061-4.08-1.488-6.447c0.532-2.202,1.903-3.729,4.112-4.398c2.393-0.725,4.794,0.055,5.909,1.877
		C140.789,73.931,140.939,75.014,140.856,76.31z M137.424,75.251c-0.172-0.924-0.229-1.8-0.509-2.596
		c-0.377-1.072-1.693-1.218-2.381-0.304c-0.633,0.843-0.8,1.829-0.769,2.899C134.979,75.251,136.103,75.251,137.424,75.251z"/>
	<path d="M74.446,76.32c-2.371,0-4.706,0-7.118,0c0.005,1.606,0.358,2.973,1.717,3.864c1.402,0.925,2.895,0.61,5.423-1.15
		c-0.03,0.407,0.004,0.693-0.077,0.941c-1.033,3.083-4.485,4.408-7.658,2.921c-2.169-1.017-3.052-2.855-3.196-5.15
		c-0.246-3.904,2.544-7.017,6.233-6.935C72.857,70.883,74.796,73.1,74.446,76.32z M71.057,75.252
		c-0.153-0.892-0.192-1.746-0.474-2.51c-0.149-0.399-0.71-0.863-1.113-0.892c-0.45-0.03-1.16,0.276-1.358,0.648
		c-0.434,0.811-0.615,1.756-0.935,2.753C68.583,75.252,69.734,75.252,71.057,75.252z"/>
	<path d="M76.261,72.312c-0.436-0.045-0.779-0.082-1.377-0.145c0.21-0.343,0.307-0.724,0.533-0.831
		c1.531-0.739,2.826-1.751,3.93-3.041c0.2-0.232,0.62-0.276,1.082-0.468c0,1.156,0,2.109,0,3.199c0.907,0,1.732,0,2.603,0
		c0,0.47,0,0.804,0,1.238c-0.861,0-1.667,0-2.579,0c0,1.322,0,2.544,0,3.768c0,1.171-0.007,2.344,0.002,3.515
		c0.01,1.626,0.789,2.143,2.319,1.543c0.188-0.075,0.365-0.173,0.78-0.37c-0.04,0.402,0.016,0.705-0.103,0.9
		c-1.063,1.756-4.065,2.433-5.788,1.317c-0.977-0.631-1.355-1.602-1.374-2.702c-0.035-2.314-0.021-4.628-0.027-6.941
		C76.26,72.979,76.261,72.666,76.261,72.312z"/>
	<path fill="#FFFFFF" d="M20.093,74.343c0.642-0.584,1.354-1.231,2.146-1.95c0.469,0.449,1.028,0.982,1.457,1.393
		c2.06-1.883,4.085-3.735,6.13-5.607c3.085,2.213,4.104,7.153,2.145,10.982c-2.025,3.958-6.686,5.873-10.897,4.479
		c-4.396-1.458-6.943-5.761-6.139-10.37c0.726-4.168,4.667-7.453,8.897-7.365c0,1.005,0,2.013,0,3.071
		c-2.122,0.13-3.837,1.006-4.992,2.811c-0.932,1.455-1.16,3.042-0.743,4.719c0.808,3.256,4.332,5.212,7.554,4.189
		c3.32-1.055,5.027-4.557,3.787-7.845c-0.939,0.922-1.854,1.841-2.791,2.737c-0.927,0.888-1.875,1.76-2.746,2.572
		C22.725,76.979,21.451,75.702,20.093,74.343z"/>
</g>
</svg>
