<?xml version="1.0" encoding="utf-8"?>
<!-- Generator: Adobe Illustrator 16.0.0, SVG Export Plug-In . SVG Version: 6.00 Build 0)  -->
<!DOCTYPE svg PUBLIC "-//W3C//DTD SVG 1.1//EN" "http://www.w3.org/Graphics/SVG/1.1/DTD/svg11.dtd">
<svg version="1.1" id="Layer_1" xmlns="http://www.w3.org/2000/svg" xmlns:xlink="http://www.w3.org/1999/xlink" x="0px" y="0px"
	 width="500px" height="500px" viewBox="0 0 500 500" enable-background="new 0 0 500 500" xml:space="preserve">
<g>
	<path fill-rule="evenodd" clip-rule="evenodd" d="M72.28,197.002c5.969,1.868,12.273,3.04,17.848,5.726
		c21.107,10.165,32.619,33.171,28.7,56.226c-3.841,22.597-21.949,40.161-44.799,43.476c-0.598,0.087-1.167,0.375-1.75,0.569
		c-3.786,0-7.571,0-11.357,0c-0.587-0.191-1.162-0.463-1.764-0.563c-19.286-3.195-33.136-13.64-41.076-31.474
		c-2.14-4.806-3.021-10.173-4.479-15.282c0-3.786,0-7.571,0-11.357c0.203-0.695,0.476-1.38,0.598-2.09
		c3.361-19.53,14.178-33.321,32.283-41.175c4.544-1.971,9.612-2.735,14.438-4.055C64.709,197.002,68.495,197.002,72.28,197.002z
		 M52.971,247.64c4.871,4.879,9.445,9.462,13.675,13.697c3.121-2.919,6.523-6.039,9.854-9.232c3.36-3.221,6.649-6.516,10.015-9.822
		c4.451,11.801-1.677,24.366-13.591,28.148c-11.562,3.669-24.212-3.346-27.11-15.034c-1.493-6.019-0.67-11.715,2.668-16.931
		c4.144-6.478,10.295-9.621,17.913-10.084c0-3.805,0-7.419,0-11.024c-15.184-0.315-29.321,11.471-31.928,26.426
		c-2.885,16.547,6.254,31.987,22.026,37.214c15.111,5.007,31.837-1.867,39.106-16.071c7.029-13.736,3.372-31.469-7.696-39.407
		c-7.342,6.715-14.61,13.362-22,20.12c-1.543-1.475-3.544-3.386-5.232-4.998C57.832,243.222,55.273,245.547,52.971,247.64z"/>
	<path fill-rule="evenodd" clip-rule="evenodd" d="M282.807,279.379c-0.614-2.117-0.536-3.482,2.009-3.593
		c2.598-0.113,3.575-1.786,3.572-4.254c-0.019-13.666-0.05-27.334,0.014-41c0.018-3.864-2.652-4.271-5.683-4.612
		c-0.084-0.951-0.162-1.844-0.23-2.625c0.324-0.262,0.487-0.508,0.646-0.505c12.166,0.238,24.421-0.331,36.469,0.986
		c12.009,1.313,20.118,9.829,22.036,20.397c2.332,12.852-2.107,24.458-11.619,30.459c-5.22,3.293-11.021,4.711-17.068,4.834
		c-9.563,0.193-19.133,0.062-28.699,0.061C283.842,279.527,283.432,279.445,282.807,279.379z M304.447,226.802
		c0,14.959-0.036,29.958,0.034,44.956c0.013,2.709,1.953,3.798,4.423,3.956c6.117,0.395,10.809-2.217,13.306-7.658
		c5.152-11.223,5.234-22.614-0.764-33.577C318.108,228.376,310.84,225.37,304.447,226.802z"/>
	<path fill-rule="evenodd" clip-rule="evenodd" d="M179.875,252.651c8.76,0,17.35,0,25.997,0c0.75,2.147,0.413,3.419-2.115,3.674
		c-2.555,0.257-3.462,1.961-3.421,4.418c0.066,3.992,0.118,7.991-0.054,11.978c-0.045,1.042-0.676,2.614-1.479,2.984
		c-12.32,5.668-24.954,7.103-37.251,0.481c-9.851-5.303-13.155-14.685-12.601-25.344c1.445-27.788,29.804-34.388,47.293-25.527
		c1.609,0.815,2.281,1.826,2.211,3.676c-0.144,3.76-0.043,7.529-0.043,11.298c-2.534,0.794-3.699,0.335-4.619-2.416
		c-1.097-3.28-2.754-6.772-5.183-9.127c-5.685-5.511-15.654-3.494-19.107,4.048c-5.646,12.331-5.28,24.914,0.81,37.063
		c2.5,4.986,7.61,7.052,12.721,6.176c1.833-0.314,2.75-1.004,2.675-3.06c-0.145-3.989-0.057-7.986-0.042-11.979
		c0.011-2.64-0.867-4.559-3.832-4.745C179.544,256.104,179.404,254.715,179.875,252.651z"/>
	<path fill-rule="evenodd" clip-rule="evenodd" d="M418.364,277.321c-0.652,0.735-1.291,2.096-1.959,2.109
		c-7.338,0.153-14.681,0.096-22.178,0.096c0-1.17,0-2.066,0-3.183c3.859,0.232,4.49-1.963,4.415-5.224
		c-0.18-7.776-0.148-15.562-0.001-23.34c0.042-2.268-0.492-3.744-2.604-4.761c-0.795-0.382-1.24-1.491-1.846-2.269
		c0.76-0.558,1.441-1.372,2.291-1.629c4.521-1.364,9.074-2.622,13.637-3.837c1.057-0.282,2.193-0.257,3.511-0.395
		c0,2.592,0,4.854,0,7.738c1.1-1.052,1.704-1.932,2.54-2.376c3.375-1.792,6.655-4.231,10.274-5
		c8.376-1.78,14.237,3.222,14.428,11.797c0.179,8.092,0.073,16.191,0.03,24.287c-0.014,2.497,0.123,4.688,3.377,5.02
		c0.48,0.049,1.331,1.313,1.183,1.658c-0.276,0.645-1.156,1.446-1.796,1.456c-7.137,0.102-14.276,0.063-21.561,0.063
		c-0.599-1.802-0.739-2.912,1.509-3.592c0.984-0.298,2.181-1.965,2.206-3.036c0.187-7.881,0.16-15.77,0.076-23.654
		c-0.043-4.049-1.948-5.739-5.965-5.441c-1.448,0.107-3.027,0.292-4.254,0.972c-0.944,0.521-2.01,1.86-2.029,2.854
		c-0.16,8.304,0.017,16.613-0.146,24.916c-0.062,3.145,1.856,3.632,4.283,3.894C417.979,276.738,418.172,277.029,418.364,277.321z"
		/>
	<path fill-rule="evenodd" clip-rule="evenodd" d="M346.069,258.296c0.073-13.738,9.699-23.533,23.019-23.423
		c13.337,0.11,22.394,9.057,22.325,22.056c-0.072,13.677-9.736,23.46-23.087,23.373
		C354.916,280.215,345.999,271.398,346.069,258.296z M375.813,258.928c-0.097-0.008-0.193-0.017-0.291-0.024
		c0-0.839,0.045-1.679-0.008-2.514c-0.146-2.302-0.104-4.646-0.559-6.888c-0.578-2.848-1.197-5.798-2.475-8.368
		c-1.916-3.855-6.374-3.701-8.385,0.132c-0.763,1.453-1.469,3.163-1.464,4.753c0.021,7.617,0.135,15.241,0.579,22.842
		c0.122,2.065,1.219,4.246,2.384,6.039c1.845,2.84,5.459,2.731,7.326-0.087c0.787-1.188,1.397-2.638,1.599-4.04
		C375.087,266.845,375.399,262.878,375.813,258.928z"/>
	<path fill-rule="evenodd" clip-rule="evenodd" d="M486.319,254.695c-8.626,0-16.983,0-25.294,0
		c-0.696,6.43,2.018,12.042,6.759,14.418c5.036,2.525,11.381,1.455,15.787-2.579c0.691-0.632,1.649-0.971,2.485-1.446
		c-0.031,1.035,0.199,2.164-0.133,3.092c-5.627,15.772-24.948,14.402-32.637,6.628c-6.508-6.58-7.394-14.651-5.34-23.141
		c1.912-7.9,6.835-13.384,14.756-15.782c8.585-2.601,17.206,0.196,21.206,6.737C486.075,246.164,486.621,250.051,486.319,254.695z
		 M474.001,250.9c-0.618-3.318-0.825-6.455-1.827-9.314c-1.348-3.851-6.077-4.37-8.545-1.087c-2.274,3.024-2.872,6.559-2.757,10.401
		C465.225,250.9,469.256,250.9,474.001,250.9z"/>
	<path fill-rule="evenodd" clip-rule="evenodd" d="M248.015,254.737c-8.51,0-16.885,0-25.542,0
		c0.019,5.76,1.286,10.665,6.163,13.872c5.036,3.312,10.389,2.184,19.461-4.132c-0.108,1.462,0.015,2.49-0.281,3.378
		c-3.699,11.063-16.092,15.818-27.477,10.481c-7.781-3.647-10.951-10.242-11.469-18.48c-0.88-14.013,9.128-25.18,22.365-24.882
		C242.31,235.225,249.266,243.181,248.015,254.737z M235.849,250.902c-0.548-3.198-0.687-6.262-1.702-9.002
		c-0.53-1.432-2.544-3.097-3.992-3.199c-1.619-0.115-4.16,0.988-4.875,2.324c-1.557,2.908-2.209,6.3-3.354,9.877
		C226.972,250.902,231.104,250.902,235.849,250.902z"/>
	<path fill-rule="evenodd" clip-rule="evenodd" d="M254.522,240.354c-1.569-0.167-2.795-0.296-4.938-0.522
		c0.754-1.229,1.097-2.594,1.91-2.985c5.49-2.649,10.142-6.277,14.102-10.908c0.713-0.835,2.22-0.992,3.881-1.677
		c0,4.146,0,7.568,0,11.478c3.256,0,6.217,0,9.339,0c0,1.69,0,2.886,0,4.446c-3.087,0-5.984,0-9.259,0c0,4.745,0,9.132,0,13.52
		c0,4.205-0.021,8.41,0.006,12.614c0.037,5.832,2.835,7.687,8.326,5.534c0.675-0.264,1.314-0.617,2.802-1.324
		c-0.146,1.442,0.053,2.524-0.373,3.228c-3.815,6.305-14.587,8.724-20.769,4.727c-3.506-2.267-4.866-5.743-4.927-9.697
		c-0.128-8.303-0.078-16.607-0.1-24.912C254.52,242.746,254.522,241.619,254.522,240.354z"/>
	<path fill-rule="evenodd" clip-rule="evenodd" fill="#FFFFFF" d="M52.971,247.64c2.303-2.093,4.861-4.418,7.7-6.999
		c1.688,1.612,3.688,3.523,5.232,4.998c7.389-6.758,14.657-13.405,22-20.12c11.068,7.938,14.726,25.671,7.696,39.407
		c-7.269,14.204-23.995,21.078-39.106,16.071c-15.772-5.227-24.911-20.667-22.026-37.214c2.607-14.955,16.744-26.741,31.928-26.426
		c0,3.605,0,7.22,0,11.024c-7.617,0.463-13.769,3.606-17.913,10.084c-3.338,5.216-4.161,10.912-2.668,16.931
		c2.898,11.688,15.549,18.703,27.11,15.034c11.914-3.782,18.042-16.348,13.591-28.148c-3.366,3.307-6.655,6.602-10.015,9.822
		c-3.331,3.193-6.732,6.313-9.854,9.232C62.416,257.102,57.842,252.519,52.971,247.64z"/>
</g>
</svg>
