<?xml version="1.0" encoding="utf-8"?>
<!-- Generator: Adobe Illustrator 16.0.0, SVG Export Plug-In . SVG Version: 6.00 Build 0)  -->
<!DOCTYPE svg PUBLIC "-//W3C//DTD SVG 1.1//EN" "http://www.w3.org/Graphics/SVG/1.1/DTD/svg11.dtd">
<svg version="1.1" id="Layer_1" xmlns="http://www.w3.org/2000/svg" xmlns:xlink="http://www.w3.org/1999/xlink" x="0px" y="0px"
	 width="150px" height="150px" viewBox="88.5 -33 150 150" enable-background="new 88.5 -33 150 150" xml:space="preserve">
<g>
	<path d="M147.404,34.059c0-1.562,0.18-1.802,2.162-2.012v-1.261h-10.24v1.261c2.012,0.21,2.192,0.45,2.192,2.012v14.535
		c0,1.562-0.18,1.802-2.192,2.012v1.262h10.24v-1.262c-1.982-0.21-2.162-0.45-2.162-2.012V34.059z"/>
	<path d="M159.403,32.197c4.594,0,7.147,3.694,7.147,9.459c0,5.345-2.222,8.798-5.616,8.798h-0.27c-1.352,0-2.042-0.33-2.042-2.102
		V32.197H159.403z M161.114,51.867c7.027,0,11.532-3.994,11.532-10.781c0-5.856-3.904-10.3-12.223-10.3h-9.88v1.261
		c2.012,0.21,2.192,0.45,2.192,2.012v14.535c0,1.562-0.18,1.802-2.192,2.012v1.262H161.114z"/>
	<path d="M178.558,42.197c0-3.093,1.081-5.465,2.943-5.465c1.441,0,1.922,1.201,1.922,2.943c0,0.541-0.03,1.051-0.121,1.711h2.854
		c0.661-0.3,1.321-1.051,1.321-2.192c0-2.643-2.463-3.814-5.495-3.814c-4.985,0-8.229,3.814-8.229,8.889
		c0,4.925,3.213,7.898,7.387,7.898c3.364,0,5.796-1.652,6.788-5.316l-0.661-0.42c-0.961,1.381-2.223,1.982-3.994,1.982
		C180.27,48.414,178.558,46.041,178.558,42.197z"/>
	<path d="M196.813,50.906c-1.922,0-2.643-3.213-2.643-8.139c0-3.813,0.57-6.126,2.372-6.126c1.951,0,2.643,3.213,2.643,8.138
		C199.186,48.594,198.615,50.906,196.813,50.906z M196.663,52.168c4.925,0,8.408-3.664,8.408-8.709c0-4.925-3.424-8.079-8.378-8.079
		c-4.925,0-8.408,3.664-8.408,8.709C188.285,49.014,191.708,52.168,196.663,52.168z"/>
	<path d="M212.957,41.146c1.382-1.021,3.063-1.082,4.955-1.082h0.721v-4.174c-0.301-0.3-0.812-0.511-1.501-0.511
		c-1.893,0-2.943,1.111-4.175,4.625l0.12-4.625h-1.021l-6.277,1.742v0.841l1.651,1.021v10.541c0,0.961-0.479,1.08-1.681,1.17v1.172
		h9.609v-1.172c-1.712-0.209-2.402-0.33-2.402-1.621V41.146z"/>
	<path d="M226.804,35.38c-4.325,0-8.019,3.424-8.019,8.768c0,5.046,3.363,8.02,7.808,8.02c3.784,0,6.096-2.193,6.907-5.496
		l-0.57-0.36c-1.142,1.501-2.553,2.192-4.475,2.192c-2.733,0-4.715-2.223-4.654-5.797h9.579v-0.75
		C233.38,38.143,231.158,35.38,226.804,35.38z M226.442,36.642c1.622,0,2.192,1.772,2.192,4.685h-4.805
		C223.98,38.534,224.791,36.642,226.442,36.642z"/>
	<path fill="#0D1743" d="M111.518,60.018c9.951,0,18.018-8.066,18.018-18.018s-8.067-18.018-18.018-18.018S93.5,32.049,93.5,42
		S101.567,60.018,111.518,60.018z"/>
	<path fill="#FFFFFF" d="M111.518,47.467c-1.45,0-2.841-0.576-3.866-1.602s-1.602-2.416-1.602-3.866s0.576-2.841,1.602-3.866
		s2.416-1.602,3.866-1.602V47.467z"/>
	<path fill="#FFFFFF" d="M116.986,42c0,0.718-0.142,1.429-0.416,2.092c-0.275,0.664-0.678,1.268-1.186,1.774
		c-0.508,0.508-1.11,0.911-1.774,1.186c-0.663,0.274-1.374,0.416-2.092,0.416v6.249c3.107,0,6.088-1.234,8.285-3.432
		s3.432-5.178,3.432-8.285s-1.235-6.088-3.432-8.285s-5.178-3.432-8.285-3.432v6.252c1.45,0,2.84,0.576,3.865,1.601
		C116.409,39.16,116.985,40.55,116.986,42z"/>
	<path fill="#FFFFFF" d="M106.192,35.747c1.329,0,2.407-1.078,2.407-2.407s-1.078-2.407-2.407-2.407
		c-1.33,0-2.407,1.078-2.407,2.407S104.862,35.747,106.192,35.747z"/>
</g>
</svg>
