<?xml version="1.0" encoding="utf-8"?>
<!-- Generator: Adobe Illustrator 16.0.0, SVG Export Plug-In . SVG Version: 6.00 Build 0)  -->
<!DOCTYPE svg PUBLIC "-//W3C//DTD SVG 1.1//EN" "http://www.w3.org/Graphics/SVG/1.1/DTD/svg11.dtd">
<svg version="1.1" id="Layer_1" xmlns="http://www.w3.org/2000/svg" xmlns:xlink="http://www.w3.org/1999/xlink" x="0px" y="0px"
	 width="150px" height="150px" viewBox="925 125 150 150" enable-background="new 925 125 150 150" xml:space="preserve">
<g>
	<path fill="#2C7BE5" d="M946.601,216.81c9.168,0,16.6-7.526,16.6-16.81s-7.432-16.81-16.6-16.81S930,190.717,930,200
		S937.433,216.81,946.601,216.81z"/>
	<path fill="#FFFFFF" d="M942.265,195.61h6.229v-0.861c0-1.63-1.316-2.964-2.927-2.964h-4.152c-1.609,0-2.927,1.334-2.927,2.964
		v10.502c0,1.63,1.317,2.964,2.927,2.964h10.372c1.609,0,2.927-1.334,2.927-2.964v-0.861h-12.448V195.61z"/>
	<path fill="#FFFFFF" d="M951.786,191.785h-0.851v6.307h-6.229v0.861c0,1.631,1.317,2.964,2.927,2.964h4.152
		c0.329,0,0.658-0.057,0.979-0.176c0.832-0.297,1.481-0.954,1.783-1.807c0.109-0.323,0.174-0.657,0.174-0.99v-4.205
		C954.713,193.109,953.405,191.785,951.786,191.785z"/>
	<path d="M979.932,205.662c0,2.315-0.275,3.768-1.847,3.768c-1.405,0-1.847-1.479-1.847-3.321c0-0.894,0.083-1.479,0.193-2.148
		h-3.473c-0.854,0.502-1.378,1.367-1.378,2.483c0,2.707,2.232,4.186,6.366,4.186c4.686,0,7.386-2.009,7.386-6.558v-10.27
		c0-1.452,0.166-1.675,1.984-1.87v-1.172h-9.397v1.172c1.846,0.195,2.012,0.418,2.012,1.87V205.662z"/>
	<path d="M995.129,209.457c-1.764,0-2.425-2.986-2.425-7.563c0-3.545,0.524-5.693,2.177-5.693c1.792,0,2.426,2.986,2.426,7.563
		C997.307,207.309,996.783,209.457,995.129,209.457z M994.992,210.629c4.52,0,7.717-3.404,7.717-8.093
		c0-4.577-3.143-7.507-7.689-7.507c-4.521,0-7.717,3.404-7.717,8.093C987.303,207.699,990.444,210.629,994.992,210.629z"/>
	<path d="M1004.24,191.401v17.302c1.792,1.424,4.548,1.926,7.056,1.926c4.63,0,8.241-3.014,8.241-8.734
		c0-4.577-2.315-6.865-5.567-6.865c-2.343,0-3.858,1.451-4.63,2.707v-9.237h-0.854l-5.761,1.283v0.838L1004.24,191.401z
		 M1011.296,209.317c-1.461,0-1.956-1.116-1.956-2.901v-7.871c0.495-0.334,1.047-0.474,1.626-0.474c2.094,0,3.39,1.702,3.39,5.387
		C1014.355,206.75,1013.281,209.317,1011.296,209.317z"/>
	<path d="M1030.668,190.48c-5.732,0-10.419,4.046-10.419,10.604c0,5.889,3.887,9.544,10.17,9.544c2.702,0,5.154-0.669,6.752-1.813
		l0.469-5.553h-1.378c-1.102,4.241-2.865,5.888-5.153,5.888c-3.39,0-5.153-3.739-5.153-8.847c0-4.717,1.433-8.428,4.878-8.428
		c2.563,0,4.024,1.813,4.712,5.135h1.352l-0.083-4.884C1035.242,191.066,1033.147,190.48,1030.668,190.48z"/>
	<path d="M1045.313,207.867c-1.378,0-1.902-1.061-1.902-2.484c0-1.59,0.635-2.12,1.599-2.483l1.517-0.587v5.163
		C1046.084,207.728,1045.754,207.867,1045.313,207.867z M1051.541,199.885c0-3.628-2.314-4.855-6.175-4.855
		c-3.334,0-5.924,1.172-5.924,3.711c0,1.005,0.551,1.675,1.351,1.954l3.059-0.419c-0.138-0.67-0.248-1.312-0.248-1.953
		c0-1.312,0.413-2.205,1.488-2.205c1.074,0,1.434,0.865,1.434,2.149v2.846l-4.383,1.563c-1.956,0.697-3.638,1.703-3.638,4.131
		c0,2.399,1.626,3.739,3.941,3.739c2.04,0,3.362-1.089,4.161-2.261c0.414,1.479,1.571,2.344,3.171,2.344
		c1.542,0,2.728-0.585,3.637-1.507l-0.192-0.754c-0.193,0.085-0.552,0.168-0.938,0.168c-0.662,0-0.744-0.586-0.744-1.256V199.885z"
		/>
	<path d="M1059.911,188.499h-0.854l-5.76,1.283v0.838l1.516,0.781v16.771c0,0.894-0.441,1.006-1.543,1.089v1.089h8.185v-1.089
		c-1.103-0.083-1.543-0.195-1.543-1.089V188.499z"/>
	<path d="M1068.457,188.499h-0.854l-5.761,1.283v0.838l1.516,0.781v16.771c0,0.894-0.439,1.006-1.542,1.089v1.089H1070v-1.089
		c-1.102-0.083-1.543-0.195-1.543-1.089V188.499z"/>
</g>
</svg>
