<svg xmlns="http://www.w3.org/2000/svg" xmlns:xlink="http://www.w3.org/1999/xlink" width="156" height="40" viewBox="0 0 156 40">
  <defs>
    <polygon id="kyubook_beta_logo-a" points=".903 .437 15.04 .437 15.04 13.696 .903 13.696"/>
  </defs>
  <g fill="none" fill-rule="evenodd">
    <path fill="#0d0c22" fill-rule="nonzero" d="M43.1102609,26 L43.1102609,20.024 L47.9342609,26 L51.7742609,26 L46.1102609,19.52 L50.9822609,14.096 L47.3342609,14.096 L43.1102609,18.92 L43.1102609,8.72 L40.0382609,8.72 L40.0382609,26 L43.1102609,26 Z M56.4222609,31.28 L63.9822609,14.096 L60.7182609,14.096 L57.2382609,22.472 L53.9022609,14.096 L50.5662609,14.096 L55.1982609,25.208 L55.9182609,25.208 L53.1582609,31.28 L56.4222609,31.28 Z M68.4622609,26.288 C69.3902609,26.288 70.2022609,26.08 70.8982609,25.664 C71.5942609,25.248 72.1262609,24.688 72.4942609,23.984 L72.4942609,23.984 L72.7342609,26 L75.4462609,26 L75.4462609,14.096 L72.3742609,14.096 L72.3742609,20.24 C72.3742609,21.328 72.0982609,22.176 71.5462609,22.784 C70.9942609,23.392 70.2942609,23.696 69.4462609,23.696 C68.5502609,23.696 67.8942609,23.424 67.4782609,22.88 C67.0622609,22.336 66.8542609,21.552 66.8542609,20.528 L66.8542609,20.528 L66.8542609,14.096 L63.8062609,14.096 L63.8062609,20.816 C63.8062609,22.608 64.2102609,23.968 65.0182609,24.896 C65.8262609,25.824 66.9742609,26.288 68.4622609,26.288 Z M83.6462609,26.288 C84.7662609,26.288 85.7662609,26.02 86.6462609,25.484 C87.5262609,24.948 88.2222609,24.212 88.7342609,23.276 C89.2462609,22.34 89.5022609,21.272 89.5022609,20.072 C89.5022609,18.872 89.2462609,17.8 88.7342609,16.856 C88.2222609,15.912 87.5262609,15.168 86.6462609,14.624 C85.7662609,14.08 84.7662609,13.808 83.6462609,13.808 C82.6382609,13.808 81.8182609,14.008 81.1862609,14.408 C80.5542609,14.808 80.0462609,15.272 79.6622609,15.8 L79.6622609,15.8 L79.6622609,8.72 L76.5902609,8.72 L76.5902609,26 L79.3262609,26 L79.6622609,24.368 C80.0782609,24.976 80.6222609,25.448 81.2942609,25.784 C81.9662609,26.12 82.7502609,26.288 83.6462609,26.288 Z M82.9982609,23.6 C82.0062609,23.6 81.1942609,23.268 80.5622609,22.604 C79.9302609,21.94 79.6142609,21.088 79.6142609,20.048 C79.6142609,19.008 79.9302609,18.156 80.5622609,17.492 C81.1942609,16.828 82.0062609,16.496 82.9982609,16.496 C83.9742609,16.496 84.7822609,16.832 85.4222609,17.504 C86.0622609,18.176 86.3822609,19.032 86.3822609,20.072 C86.3822609,21.112 86.0622609,21.96 85.4222609,22.616 C84.7822609,23.272 83.9742609,23.6 82.9982609,23.6 Z M95.9502609,26.288 C97.0862609,26.288 98.1182609,26.024 99.0462609,25.496 C99.9742609,24.968 100.706261,24.236 101.242261,23.3 C101.778261,22.364 102.046261,21.28 102.046261,20.048 C102.046261,18.816 101.778261,17.732 101.242261,16.796 C100.706261,15.86 99.9782609,15.128 99.0582609,14.6 C98.1382609,14.072 97.1102609,13.808 95.9742609,13.808 C94.8222609,13.808 93.7862609,14.072 92.8662609,14.6 C91.9462609,15.128 91.2142609,15.86 90.6702609,16.796 C90.1262609,17.732 89.8542609,18.816 89.8542609,20.048 C89.8542609,21.28 90.1222609,22.364 90.6582609,23.3 C91.1942609,24.236 91.9222609,24.968 92.8422609,25.496 C93.7622609,26.024 94.7982609,26.288 95.9502609,26.288 Z M95.9502609,23.624 C95.1502609,23.624 94.4582609,23.324 93.8742609,22.724 C93.2902609,22.124 92.9982609,21.232 92.9982609,20.048 C92.9982609,18.864 93.2902609,17.972 93.8742609,17.372 C94.4582609,16.772 95.1582609,16.472 95.9742609,16.472 C96.7582609,16.472 97.4462609,16.772 98.0382609,17.372 C98.6302609,17.972 98.9262609,18.864 98.9262609,20.048 C98.9262609,21.232 98.6302609,22.124 98.0382609,22.724 C97.4462609,23.324 96.7502609,23.624 95.9502609,23.624 Z M108.494261,26.288 C109.630261,26.288 110.662261,26.024 111.590261,25.496 C112.518261,24.968 113.250261,24.236 113.786261,23.3 C114.322261,22.364 114.590261,21.28 114.590261,20.048 C114.590261,18.816 114.322261,17.732 113.786261,16.796 C113.250261,15.86 112.522261,15.128 111.602261,14.6 C110.682261,14.072 109.654261,13.808 108.518261,13.808 C107.366261,13.808 106.330261,14.072 105.410261,14.6 C104.490261,15.128 103.758261,15.86 103.214261,16.796 C102.670261,17.732 102.398261,18.816 102.398261,20.048 C102.398261,21.28 102.666261,22.364 103.202261,23.3 C103.738261,24.236 104.466261,24.968 105.386261,25.496 C106.306261,26.024 107.342261,26.288 108.494261,26.288 Z M108.494261,23.624 C107.694261,23.624 107.002261,23.324 106.418261,22.724 C105.834261,22.124 105.542261,21.232 105.542261,20.048 C105.542261,18.864 105.834261,17.972 106.418261,17.372 C107.002261,16.772 107.702261,16.472 108.518261,16.472 C109.302261,16.472 109.990261,16.772 110.582261,17.372 C111.174261,17.972 111.470261,18.864 111.470261,20.048 C111.470261,21.232 111.174261,22.124 110.582261,22.724 C109.990261,23.324 109.294261,23.624 108.494261,23.624 Z M118.398261,26 L118.398261,20.024 L123.222261,26 L127.062261,26 L121.398261,19.52 L126.270261,14.096 L122.622261,14.096 L118.398261,18.92 L118.398261,8.72 L115.326261,8.72 L115.326261,26 L118.398261,26 Z"/>
    <path fill="#9B9B9B" fill-rule="nonzero" d="M130.222261,39.392 C130.968928,39.392 131.635594,39.2133333 132.222261,38.856 C132.808928,38.4986667 133.272928,38.008 133.614261,37.384 C133.955594,36.76 134.126261,36.048 134.126261,35.248 C134.126261,34.448 133.955594,33.7333333 133.614261,33.104 C133.272928,32.4746667 132.808928,31.9786667 132.222261,31.616 C131.635594,31.2533333 130.968928,31.072 130.222261,31.072 C129.550261,31.072 129.003594,31.2053333 128.582261,31.472 C128.160928,31.7386667 127.822261,32.048 127.566261,32.4 L127.566261,32.4 L127.566261,27.68 L125.518261,27.68 L125.518261,39.2 L127.342261,39.2 L127.566261,38.112 C127.843594,38.5173333 128.206261,38.832 128.654261,39.056 C129.102261,39.28 129.624928,39.392 130.222261,39.392 Z M129.790261,37.6 C129.128928,37.6 128.587594,37.3786667 128.166261,36.936 C127.744928,36.4933333 127.534261,35.9253333 127.534261,35.232 C127.534261,34.5386667 127.744928,33.9706667 128.166261,33.528 C128.587594,33.0853333 129.128928,32.864 129.790261,32.864 C130.440928,32.864 130.979594,33.088 131.406261,33.536 C131.832928,33.984 132.046261,34.5546667 132.046261,35.248 C132.046261,35.9413333 131.832928,36.5066667 131.406261,36.944 C130.979594,37.3813333 130.440928,37.6 129.790261,37.6 Z M138.472928,39.392 C139.112928,39.392 139.686261,39.2746667 140.192928,39.04 C140.699594,38.8053333 141.126261,38.4826667 141.472928,38.072 C141.819594,37.6613333 142.067594,37.2053333 142.216928,36.704 L142.216928,36.704 L140.136928,36.704 C139.998261,37.0026667 139.787594,37.2453333 139.504928,37.432 C139.222261,37.6186667 138.872928,37.712 138.456928,37.712 C137.902261,37.712 137.430261,37.536 137.040928,37.184 C136.651594,36.832 136.435594,36.3466667 136.392928,35.728 L136.392928,35.728 L142.424928,35.728 C142.435594,35.5893333 142.443594,35.456 142.448928,35.328 C142.454261,35.2 142.456928,35.0773333 142.456928,34.96 C142.456928,34.2346667 142.288928,33.576 141.952928,32.984 C141.616928,32.392 141.150261,31.9253333 140.552928,31.584 C139.955594,31.2426667 139.267594,31.072 138.488928,31.072 C137.656928,31.072 136.934261,31.2506667 136.320928,31.608 C135.707594,31.9653333 135.227594,32.464 134.880928,33.104 C134.534261,33.744 134.360928,34.4746667 134.360928,35.296 C134.360928,36.1066667 134.536928,36.8213333 134.888928,37.44 C135.240928,38.0586667 135.726261,38.5386667 136.344928,38.88 C136.963594,39.2213333 137.672928,39.392 138.472928,39.392 Z M140.376928,34.448 L136.424928,34.448 C136.531594,33.872 136.776928,33.4426667 137.160928,33.16 C137.544928,32.8773333 137.987594,32.736 138.488928,32.736 C139.011594,32.736 139.448928,32.8906667 139.800928,33.2 C140.152928,33.5093333 140.344928,33.9253333 140.376928,34.448 L140.376928,34.448 Z M147.635594,39.2 L147.635594,37.456 L146.643594,37.456 C146.238261,37.456 145.952928,37.384 145.787594,37.24 C145.622261,37.096 145.539594,36.832 145.539594,36.448 L145.539594,36.448 L145.539594,32.976 L147.683594,32.976 L147.683594,31.264 L145.539594,31.264 L145.539594,29.136 L143.731594,29.136 L143.491594,31.264 L142.131594,31.264 L142.131594,32.976 L143.491594,32.976 L143.491594,36.432 C143.491594,37.4666667 143.742261,38.1866667 144.243594,38.592 C144.744928,38.9973333 145.411594,39.2 146.243594,39.2 L146.243594,39.2 L147.635594,39.2 Z M150.846261,39.392 C151.507594,39.392 152.048928,39.2533333 152.470261,38.976 C152.891594,38.6986667 153.219594,38.3466667 153.454261,37.92 L153.454261,37.92 L153.646261,39.2 L155.390261,39.2 L155.390261,34.32 C155.390261,33.2853333 155.064928,32.4853333 154.414261,31.92 C153.763594,31.3546667 152.872928,31.072 151.742261,31.072 C151.080928,31.072 150.483594,31.1866667 149.950261,31.416 C149.416928,31.6453333 148.982261,31.9733333 148.646261,32.4 C148.310261,32.8266667 148.115594,33.328 148.062261,33.904 L148.062261,33.904 L150.062261,33.904 C150.136928,33.52 150.328928,33.2293333 150.638261,33.032 C150.947594,32.8346667 151.310261,32.736 151.726261,32.736 C152.184928,32.736 152.568928,32.864 152.878261,33.12 C153.187594,33.376 153.342261,33.776 153.342261,34.32 L153.342261,34.32 L153.342261,34.512 L151.326261,34.512 C150.174261,34.512 149.310261,34.7413333 148.734261,35.2 C148.158261,35.6586667 147.870261,36.256 147.870261,36.992 C147.870261,37.4293333 147.976928,37.8293333 148.190261,38.192 C148.403594,38.5546667 148.728928,38.8453333 149.166261,39.064 C149.603594,39.2826667 150.163594,39.392 150.846261,39.392 Z M151.310261,37.792 C150.926261,37.792 150.616928,37.7066667 150.382261,37.536 C150.147594,37.3653333 150.030261,37.1253333 150.030261,36.816 C150.030261,36.528 150.147594,36.2853333 150.382261,36.088 C150.616928,35.8906667 151.006261,35.792 151.550261,35.792 L151.550261,35.792 L153.294261,35.792 C153.208928,36.3573333 153.003594,36.832 152.678261,37.216 C152.352928,37.6 151.896928,37.792 151.310261,37.792 Z" opacity=".5"/>
    <path fill="#CC004B" d="M23.9015,6.3938913 C23.7067174,6.41063043 23.5819348,6.18997826 23.697587,6.03171739 C24.560413,4.85084783 27.150413,1.42693478 28.8471522,0.460630435 C31.7034565,-1.16915217 34.9371522,1.84997826 32.225413,4.49171739 C31.0065,5.67867391 25.5784565,6.24476087 23.9015,6.3938913"/>
    <path fill="#3B3561" d="M7.30358696,7.70243478 L7.29597826,7.70243478 C6.85923913,7.70395652 6.47880435,7.40873913 6.40423913,6.9796087 C6.11663043,5.28895652 5.68445652,3.38069565 5.09554348,2.38091304 C3.42619565,-0.452565217 -0.880326087,0.562434783 0.160543478,4.20091304 C0.519673913,5.45482609 3.2025,7.61873913 5.05902174,8.9943913 C5.2598913,9.14352174 5.34206522,9.40373913 5.26293478,9.6396087 C4.45336957,12.0378696 1.5925,20.5322174 1.5925,20.5322174 L12.6388043,20.5322174 L13.3951087,17.2589565 C13.5883696,16.422 14.2183696,15.8178696 15.0233696,15.6535217 L15.0233696,7.70243478 L7.30358696,7.70243478 Z"/>
    <path fill="#CC004B" d="M17.5456522,17.2591087 L18.3019565,20.5323696 L29.3482609,20.5323696 L25.4678261,9.01432609 C25.2091304,8.25041304 24.4878261,7.70258696 23.6371739,7.70258696 L15.9173913,7.70258696 L15.9173913,15.6536739 C16.7223913,15.8180217 17.3523913,16.4221522 17.5456522,17.2591087"/>
    <path fill="#FFB001" d="M30.0716957,23.7958913 C30.0716957,23.2967609 29.6303913,21.5254565 29.6060435,21.4311087 C29.6060435,21.4280652 29.603,21.4265435 29.5999565,21.4265435 L18.5156087,21.4265435 C18.5110435,21.4265435 18.508,21.429587 18.5095217,21.4341522 L19.278,24.7621957 C19.424087,25.3967609 19.278,26.0511087 18.8747391,26.5608913 C18.4623478,27.0828478 17.8216957,27.3719783 17.1566957,27.3719783 L15.9393043,27.3719783 C15.9362609,27.3719783 15.9347391,27.3735 15.9347391,27.3765435 L15.9347391,34.6732826 C15.9347391,34.6778478 15.9393043,34.6808913 15.9438696,34.6778478 L29.2773478,25.3587174 L29.2773478,25.3571957 C29.7582174,25.0056739 30.0716957,24.4380652 30.0716957,23.7958913"/>
    <g transform="translate(0 20.989)">
      <mask id="kyubook_beta_logo-b" fill="#fff">
        <use xlink:href="#kyubook_beta_logo-a"/>
      </mask>
      <path fill="#7CE7BA" d="M13.7375,6.38263043 C13.0846739,6.38263043 12.4775,6.08893478 12.0711957,5.57915217 C11.6648913,5.06784783 11.5157609,4.41045652 11.6633696,3.77436957 L12.4333696,0.437195652 L1.37032609,0.437195652 C1.37032609,0.437195652 0.903152174,2.29523913 0.903152174,2.80654348 C0.903152174,3.44871739 1.2151087,4.01784783 1.6975,4.36936957 L1.6975,4.36936957 L15.0401087,13.6961087 L15.0401087,6.38263043 L13.7375,6.38263043 Z" mask="url(#kyubook_beta_logo-b)"/>
    </g>
    <path fill="#81B3C1" d="M14.2673696,17.4602826 L12.5341087,24.9639783 C12.450413,25.3322391 12.5356304,25.7141957 12.7715,26.0109348 C13.0073696,26.3061522 13.3588913,26.476587 13.7378043,26.476587 L17.2028043,26.476587 C17.5817174,26.476587 17.9347609,26.3061522 18.1691087,26.0109348 C18.4049783,25.7141957 18.4917174,25.3322391 18.4065,24.9639783 L16.6732391,17.4602826 C16.510413,16.7541957 15.9230217,16.5031087 15.4710652,16.5031087 C15.017587,16.5031087 14.4301957,16.7541957 14.2673696,17.4602826"/>
    <path fill="#67C9F2" d="M23.6534565,7.70243478 L23.6534565,7.70243478 L23.6534565,7.70243478 Z"/>
  </g>
</svg>
