<?xml version="1.0" encoding="utf-8"?>
<!-- Generator: Adobe Illustrator 16.0.0, SVG Export Plug-In . SVG Version: 6.00 Build 0)  -->
<!DOCTYPE svg PUBLIC "-//W3C//DTD SVG 1.1//EN" "http://www.w3.org/Graphics/SVG/1.1/DTD/svg11.dtd">
<svg version="1.1" id="Layer_1" xmlns="http://www.w3.org/2000/svg" xmlns:xlink="http://www.w3.org/1999/xlink" x="0px" y="0px"
	 width="150px" height="150px" viewBox="-50 -50 150 150" enable-background="new -50 -50 150 150" xml:space="preserve">
<g>
	<path d="M-32.702,36.775c6.792,0,12.298-5.272,12.298-11.775c0-6.504-5.506-11.775-12.298-11.775S-45,18.496-45,25
		C-45,31.503-39.494,36.775-32.702,36.775z M-28.958,21.395l-1.823,1.745l-2.345-2.242c-0.26-0.226-0.6-0.347-0.95-0.338
		s-0.684,0.146-0.932,0.383s-0.391,0.557-0.399,0.892c-0.009,0.336,0.117,0.662,0.354,0.91l2.341,2.245l-1.822,1.746l-2.345-2.242
		c-0.741-0.709-1.157-1.669-1.158-2.672c0-1.002,0.415-1.963,1.154-2.672c0.74-0.709,1.743-1.108,2.79-1.108
		c1.046-0.001,2.05,0.396,2.791,1.104L-28.958,21.395z M-31.282,31.943c1.063,0,2.083-0.403,2.836-1.122
		c0.747-0.722,1.166-1.697,1.166-2.712c-0.001-1.017-0.421-1.99-1.169-2.711l-2.345-2.245l-1.919,1.837l2.345,2.245
		c0.244,0.233,0.381,0.55,0.381,0.879c0,0.33-0.137,0.646-0.381,0.879c-0.243,0.233-0.573,0.364-0.918,0.364
		c-0.344,0-0.675-0.131-0.918-0.364l-2.345-2.244l-1.918,1.836l2.348,2.236C-33.366,31.54-32.346,31.943-31.282,31.943z"/>
	<path fill="#FFFFFF" d="M-28.958,21.395l-1.823,1.745l-2.345-2.241c-0.26-0.226-0.6-0.347-0.95-0.339
		c-0.351,0.009-0.684,0.146-0.932,0.383s-0.391,0.557-0.399,0.893c-0.009,0.335,0.117,0.661,0.354,0.909l2.341,2.246l-1.822,1.745
		l-2.345-2.242c-0.741-0.708-1.157-1.669-1.158-2.671c0-1.002,0.415-1.964,1.154-2.673s1.743-1.107,2.79-1.108
		c1.046-0.001,2.05,0.396,2.791,1.105L-28.958,21.395z"/>
	<path fill="#FFFFFF" d="M-28.446,30.821c-0.753,0.719-1.772,1.122-2.836,1.122s-2.084-0.403-2.837-1.122l-2.348-2.236l1.918-1.836
		l2.345,2.244c0.243,0.233,0.574,0.364,0.918,0.364c0.345,0,0.675-0.131,0.918-0.364c0.244-0.232,0.381-0.549,0.381-0.879
		c0-0.329-0.137-0.646-0.381-0.879l-2.345-2.245l1.919-1.837l2.345,2.245c0.748,0.721,1.168,1.695,1.169,2.711
		C-27.28,29.125-27.699,30.1-28.446,30.821z"/>
	<path d="M-13.37,30.432l-0.204-3.128h1c0.464,2.013,1.706,3.471,3.614,3.471c1.335,0,2.198-0.615,2.198-1.727
		c0-1.169-0.789-1.672-2.874-2.287c-2.495-0.699-3.864-1.869-3.864-4.043c0-2.5,1.99-4.063,4.779-4.063
		c1.706,0,3.137,0.432,4.055,1.079v2.732h-0.843c-0.434-1.817-1.465-2.968-3.212-2.968c-1.164,0-1.933,0.653-1.933,1.673
		c0,1.167,0.751,1.654,2.684,2.21c2.498,0.738,4.15,1.689,4.15,4.206c0,2.769-2.311,4.043-5.12,4.043
		C-10.838,31.634-12.486,31.098-13.37,30.432z"/>
	<path d="M-2.198,19.254l-1.024-0.507v-0.535l3.926-0.827h0.58v6c0.713-0.862,1.781-1.797,3.491-1.797
		c1.803,0,2.833,0.98,2.833,2.941v5.526c0,0.575,0.301,0.653,1.052,0.699v0.7H3.126v-0.7c0.751-0.053,0.997-0.124,0.997-0.699
		v-5.249c0-0.791-0.283-1.258-1.26-1.258c-0.558,0.004-1.104,0.14-1.594,0.396v6.111c0,0.575,0.242,0.653,0.993,0.699v0.7H-3.25
		v-0.7c0.751-0.053,1.052-0.124,1.052-0.699V19.254z"/>
	<path d="M9.027,26.801c0-3.021,2.178-5.213,5.253-5.213s5.229,1.889,5.229,4.837c0,3.02-2.178,5.209-5.257,5.209
		C11.175,31.634,9.027,29.749,9.027,26.801z M15.854,27.216c0-2.941-0.434-4.873-1.651-4.873c-1.127,0-1.485,1.386-1.485,3.667
		c0,2.941,0.451,4.873,1.652,4.873c1.113-0.01,1.471-1.387,1.471-3.667H15.854z"/>
	<path d="M21.041,23.744l-1.023-0.61V22.63l3.929-1.042h0.659l-0.075,1.745c0.323-0.527,0.783-0.966,1.335-1.271
		c0.554-0.306,1.181-0.469,1.818-0.474c2.216,0,3.792,1.474,3.792,4.422c0,3.687-2.349,5.624-5.313,5.624
		c-0.572,0.044-1.144-0.088-1.632-0.375v2.533c0,0.653,0.34,0.683,1.443,0.774v0.699H19.99v-0.699
		c0.751-0.056,1.051-0.128,1.051-0.703V23.744z M27.929,27.013c0-2.373-0.883-3.468-2.31-3.468
		c-0.393-0.007-0.778,0.099-1.106,0.305v5.063c0,1.167,0.341,1.886,1.331,1.886c1.352-0.007,2.085-1.66,2.085-3.782V27.013z"/>
	<path d="M32.397,30.432l-0.204-3.128h0.993c0.468,2.013,1.727,3.471,3.62,3.471c1.335,0,2.199-0.615,2.199-1.727
		c0-1.169-0.789-1.672-2.874-2.287c-2.495-0.699-3.865-1.869-3.865-4.043c0-2.5,1.988-4.063,4.78-4.063
		c1.706,0,3.136,0.432,4.054,1.079v2.732h-0.842c-0.435-1.817-1.465-2.968-3.212-2.968c-1.165,0-1.934,0.653-1.934,1.673
		c0,1.167,0.752,1.654,2.685,2.21c2.498,0.738,4.15,1.689,4.15,4.206c0,2.769-2.312,4.043-5.12,4.043
		C34.931,31.634,33.278,31.098,32.397,30.432z"/>
	<path d="M53.14,29.389c0,0.612,0.038,0.88,0.639,0.898l0.45,0.021v0.699l-3.96,0.628H49.61l0.058-1.742
		c-0.683,0.827-1.673,1.742-3.342,1.742c-1.668,0-2.836-0.951-2.836-3.018v-4.405c0-0.52-0.129-0.898-0.73-1.042l-0.283-0.089
		v-0.653l3.962-0.827h0.619l-0.113,2.288v4.406c0,0.915,0.376,1.438,1.276,1.438c0.506-0.011,1.001-0.134,1.447-0.36v-5.16
		c0-0.52-0.133-0.898-0.713-1.042l-0.283-0.089v-0.653l3.945-0.82h0.622l-0.097,2.287L53.14,29.389z"/>
	<path d="M55.6,23.744l-1.022-0.61V22.63l3.924-1.042h0.656l-0.075,1.745c0.323-0.527,0.784-0.965,1.337-1.271
		c0.552-0.306,1.179-0.47,1.817-0.475c2.214,0,3.792,1.474,3.792,4.422c0,3.687-2.345,5.624-5.312,5.624
		c-0.572,0.043-1.145-0.089-1.635-0.375v2.533c0,0.653,0.341,0.683,1.447,0.774v0.699h-5.98v-0.699
		c0.751-0.056,1.051-0.128,1.051-0.703V23.744z M62.488,27.013c0-2.373-0.88-3.468-2.308-3.468
		c-0.394-0.008-0.779,0.099-1.108,0.305v5.063c0,1.167,0.342,1.886,1.334,1.886c1.352-0.007,2.082-1.66,2.082-3.782V27.013z"/>
	<path d="M67.52,23.744l-1.024-0.61V22.63l3.922-1.042h0.659L71,23.333c0.323-0.527,0.784-0.966,1.337-1.271
		s1.179-0.469,1.818-0.474c2.215,0,3.788,1.474,3.788,4.422c0,3.687-2.345,5.624-5.312,5.624c-0.571,0.044-1.142-0.088-1.632-0.375
		v2.533c0,0.653,0.342,0.683,1.445,0.774v0.699h-5.977v-0.699c0.75-0.056,1.051-0.128,1.051-0.703V23.744z M74.411,27.013
		c0-2.373-0.885-3.468-2.311-3.468c-0.394-0.007-0.778,0.099-1.107,0.305v5.063c0,1.167,0.342,1.886,1.332,1.886
		c1.351-0.007,2.086-1.66,2.086-3.782V27.013z"/>
	<path d="M82.995,30.056c0,0.575,0.3,0.653,1.051,0.699v0.7h-5.58v-0.7c0.75-0.053,1.051-0.124,1.051-0.699V19.271l-1.023-0.507
		v-0.552l3.925-0.827h0.577V30.056z"/>
	<path d="M92.675,23.62c0.083-0.164,0.135-0.342,0.149-0.523c0-0.396-0.263-0.503-1.238-0.627v-0.703H95v0.703
		c-0.639,0.195-0.789,0.326-0.96,0.719l-4.273,9.831c-0.683,1.582-1.39,2.409-2.703,2.409c-0.31,0.023-0.62-0.035-0.897-0.168
		c-0.278-0.133-0.513-0.337-0.68-0.587v-1.278c0.48,0.11,0.972,0.171,1.464,0.18c1.052,0,1.595-0.288,1.933-1.043l0.3-0.627
		l-4.279-8.717c-0.188-0.396-0.301-0.523-0.956-0.719v-0.703h6.007v0.703c-0.997,0.124-1.238,0.231-1.238,0.627
		c0.014,0.174,0.057,0.344,0.13,0.504l1.973,4.575L92.675,23.62z"/>
</g>
</svg>
