<?xml version="1.0" encoding="utf-8"?>
<!-- Generator: Adobe Illustrator 16.0.0, SVG Export Plug-In . SVG Version: 6.00 Build 0)  -->
<!DOCTYPE svg PUBLIC "-//W3C//DTD SVG 1.1//EN" "http://www.w3.org/Graphics/SVG/1.1/DTD/svg11.dtd">
<svg version="1.1" id="Layer_1" xmlns="http://www.w3.org/2000/svg" xmlns:xlink="http://www.w3.org/1999/xlink" x="0px" y="0px"
	 width="500px" height="500px" viewBox="0 0 500 500" enable-background="new 0 0 500 500" xml:space="preserve">
<circle cx="51.333" cy="250" r="42.34"/>
<path fill="#FFFFFF" d="M64.225,237.039l-6.275,6.275l-8.073-8.062c-1.924-1.743-4.896-1.597-6.64,0.327
	c-1.623,1.792-1.623,4.521,0,6.313l8.062,8.073l-6.275,6.275l-8.073-8.062c-5.309-5.302-5.314-13.904-0.012-19.213
	c5.302-5.309,13.904-5.314,19.213-0.012L64.225,237.039z"/>
<path fill="#FFFFFF" d="M65.987,270.929c-5.398,5.383-14.132,5.383-19.531,0l-8.084-8.038l6.604-6.604l8.073,8.073
	c1.746,1.746,4.577,1.746,6.322,0c1.746-1.746,1.746-4.577,0-6.322l0,0l-8.073-8.073l6.604-6.604l8.073,8.073
	C71.337,256.824,71.342,265.531,65.987,270.929z"/>
<path d="M117.892,269.531l-0.705-11.247h3.443c1.598,7.239,5.875,12.48,12.445,12.48c4.595,0,7.568-2.209,7.568-6.204
	c0-4.208-2.715-6.018-9.895-8.227c-8.59-2.515-13.302-6.722-13.302-14.536c0-8.99,6.851-14.607,16.451-14.607
	c5.876,0,10.8,1.551,13.96,3.878v9.824h-2.902c-1.493-6.534-5.042-10.67-11.058-10.67c-4.007,0-6.651,2.35-6.651,6.017
	c0,4.195,2.585,5.946,9.236,7.944c8.602,2.656,14.289,6.075,14.289,15.124c0,9.953-7.956,14.536-17.626,14.536
	C126.612,273.854,120.936,271.928,117.892,269.531z"/>
<path d="M156.354,229.341l-3.526-1.821v-1.927l13.514-2.973h1.998v21.576c2.456-3.103,6.134-6.463,12.021-6.463
	c6.205,0,9.753,3.525,9.753,10.576v19.871c0,2.068,1.034,2.351,3.62,2.516v2.514h-19.048v-2.514
	c2.585-0.188,3.431-0.447,3.431-2.516v-18.872c0-2.844-0.975-4.524-4.336-4.524c-1.918,0.014-3.804,0.502-5.488,1.421v21.975
	c0,2.068,0.834,2.351,3.42,2.516v2.514h-18.979v-2.514c2.585-0.188,3.62-0.447,3.62-2.516V229.341z"/>
<path d="M195.004,256.476c0-10.859,7.498-18.744,18.085-18.744c10.587,0,18.003,6.792,18.003,17.391
	c0,10.858-7.498,18.731-18.097,18.731S195.004,267.074,195.004,256.476z M218.507,257.968c0-10.577-1.493-17.521-5.688-17.521
	c-3.877,0-5.112,4.982-5.112,13.185c0,10.576,1.551,17.521,5.688,17.521c3.831-0.035,5.065-4.982,5.065-13.185H218.507z"/>
<path d="M236.368,245.488l-3.525-2.198v-1.81l13.525-3.749h2.268l-0.259,6.275c2.263-3.857,6.388-6.24,10.858-6.275
	c7.626,0,13.056,5.3,13.056,15.899c0,13.256-8.085,20.224-18.297,20.224c-1.968,0.156-3.935-0.316-5.617-1.351v9.107
	c0,2.35,1.175,2.455,4.972,2.785v2.514h-20.601v-2.514c2.585-0.2,3.619-0.459,3.619-2.527V245.488z M260.082,257.238
	c0-8.531-3.043-12.467-7.955-12.467c-1.351-0.027-2.677,0.354-3.808,1.092v18.203c0,4.195,1.175,6.78,4.583,6.78
	c4.653-0.024,7.18-5.97,7.18-13.596V257.238z"/>
<path d="M275.465,269.531l-0.705-11.247h3.419c1.609,7.239,5.946,12.48,12.468,12.48c4.596,0,7.568-2.209,7.568-6.204
	c0-4.208-2.714-6.018-9.895-8.227c-8.59-2.515-13.302-6.722-13.302-14.536c0-8.99,6.839-14.607,16.451-14.607
	c5.876,0,10.799,1.551,13.961,3.878v9.824h-2.903c-1.492-6.534-5.041-10.67-11.058-10.67c-4.007,0-6.651,2.35-6.651,6.017
	c0,4.195,2.585,5.946,9.236,7.944c8.603,2.656,14.29,6.075,14.29,15.124c0,9.953-7.956,14.536-17.626,14.536
	C284.184,273.854,278.497,271.928,275.465,269.531z"/>
<path d="M346.877,265.782c0,2.197,0.13,3.161,2.197,3.23l1.551,0.072v2.514l-13.631,2.256h-2.268l0.199-6.263
	c-2.351,2.973-5.759,6.263-11.504,6.263c-5.746,0-9.766-3.419-9.766-10.846v-15.841c0-1.869-0.447-3.231-2.515-3.749l-0.975-0.317
	v-2.35l13.643-2.973h2.127l-0.388,8.226v15.84c0,3.291,1.292,5.171,4.395,5.171c1.738-0.039,3.444-0.481,4.982-1.292v-18.556
	c0-1.869-0.458-3.231-2.456-3.749l-0.976-0.317v-2.35l13.584-2.95h2.14l-0.329,8.226L346.877,265.782z"/>
<path d="M355.35,245.488l-3.525-2.198v-1.81l13.514-3.749h2.257l-0.259,6.275c2.266-3.854,6.388-6.235,10.858-6.275
	c7.626,0,13.056,5.3,13.056,15.899c0,13.256-8.074,20.224-18.285,20.224c-1.972,0.154-3.942-0.319-5.629-1.351v9.107
	c0,2.35,1.175,2.455,4.981,2.785v2.514H351.73v-2.514c2.585-0.2,3.619-0.459,3.619-2.527V245.488z M379.063,257.238
	c0-8.531-3.031-12.467-7.944-12.467c-1.354-0.029-2.685,0.352-3.818,1.092v18.203c0,4.195,1.175,6.78,4.595,6.78
	c4.653-0.024,7.168-5.97,7.168-13.596V257.238z"/>
<path d="M396.385,245.488l-3.525-2.198v-1.81l13.502-3.749h2.269l-0.259,6.275c2.263-3.857,6.387-6.24,10.858-6.275
	c7.626,0,13.043,5.3,13.043,15.899c0,13.256-8.072,20.224-18.284,20.224c-1.969,0.156-3.936-0.316-5.617-1.351v9.107
	c0,2.35,1.175,2.455,4.971,2.785v2.514h-20.576v-2.514c2.585-0.2,3.619-0.459,3.619-2.527V245.488z M420.11,257.238
	c0-8.531-3.044-12.467-7.955-12.467c-1.351-0.027-2.678,0.354-3.808,1.092v18.203c0,4.195,1.176,6.78,4.582,6.78
	c4.654-0.024,7.181-5.97,7.181-13.596V257.238z"/>
<path d="M449.665,268.179c0,2.068,1.034,2.351,3.619,2.516v2.514h-19.213v-2.514c2.585-0.188,3.619-0.447,3.619-2.516V229.4
	l-3.525-1.822v-1.986l13.515-2.973h1.985V268.179z"/>
<path d="M482.991,245.041c0.287-0.589,0.462-1.227,0.517-1.88c0-1.422-0.904-1.81-4.266-2.257v-2.526h11.752v2.526
	c-2.198,0.705-2.715,1.175-3.303,2.586l-14.712,35.348c-2.351,5.688-4.783,8.66-9.308,8.66c-2.173,0.172-4.263-0.873-5.429-2.714
	v-4.596c1.652,0.398,3.343,0.615,5.041,0.647c3.62,0,5.487-1.035,6.651-3.749l1.035-2.257l-14.736-31.34
	c-0.647-1.422-1.035-1.881-3.291-2.586v-2.526h20.683v2.526c-3.432,0.447-4.266,0.834-4.266,2.257
	c0.046,0.624,0.197,1.235,0.446,1.809l6.792,16.452L482.991,245.041z"/>
</svg>
