<svg xmlns="http://www.w3.org/2000/svg" viewBox="0 0 410.18 72.06"><defs><style>.cls-1{fill:#0d0d0c;}.cls-2{fill:#fff;}.cls-3{fill:#070606;}</style></defs><g id="Layer_2" data-name="Layer 2"><g id="Layer_1-2" data-name="Layer 1"><circle class="cls-1" cx="36.03" cy="36.03" r="36.03"/><path class="cls-2" d="M47,25l-5.34,5.34-6.87-6.86a4,4,0,0,0-5.65,5.65L36,36l-5.34,5.34-6.87-6.86A11.56,11.56,0,0,1,40.13,18.12Z"/><path class="cls-2" d="M48.5,53.84a11.77,11.77,0,0,1-16.62,0L25,47l5.62-5.62,6.87,6.87a3.8,3.8,0,0,0,5.38-5.38L36,36l5.62-5.62,6.87,6.87A11.77,11.77,0,0,1,48.5,53.84Z"/><path class="cls-3" d="M92.67,52.65l-.6-9.57H95C96.36,49.24,100,53.7,105.59,53.7c3.91,0,6.44-1.88,6.44-5.28,0-3.58-2.31-5.12-8.42-7-7.31-2.14-11.32-5.72-11.32-12.37,0-7.65,5.83-12.43,14-12.43,5,0,9.19,1.32,11.88,3.3v8.36h-2.47c-1.27-5.56-4.29-9.08-9.41-9.08-3.41,0-5.66,2-5.66,5.12,0,3.57,2.2,5.06,7.86,6.76,7.32,2.26,12.16,5.17,12.16,12.87,0,8.47-6.77,12.37-15,12.37C100.09,56.33,95.26,54.69,92.67,52.65Z"/><path class="cls-3" d="M125.4,18.45l-3-1.55V15.26l11.5-2.53h1.7V31.09c2.09-2.64,5.22-5.5,10.23-5.5,5.28,0,8.3,3,8.3,9V51.5c0,1.76.88,2,3.08,2.14v2.14H141V53.64c2.2-.16,2.92-.38,2.92-2.14V35.44c0-2.42-.83-3.85-3.69-3.85a9.9,9.9,0,0,0-4.67,1.21V51.5c0,1.76.71,2,2.91,2.14v2.14H122.32V53.64c2.2-.16,3.08-.38,3.08-2.14Z"/><path class="cls-3" d="M158.29,41.54c0-9.24,6.38-15.95,15.39-15.95S189,31.37,189,40.39c0,9.24-6.38,15.94-15.4,15.94S158.29,50.56,158.29,41.54Zm20,1.27c0-9-1.27-14.91-4.84-14.91-3.3,0-4.35,4.24-4.35,11.22,0,9,1.32,14.91,4.84,14.91C177.2,54,178.25,49.79,178.25,42.81Z"/><path class="cls-3" d="M193.49,32.19l-3-1.87V28.78L202,25.59h1.93l-.22,5.34a10.81,10.81,0,0,1,9.24-5.34c6.49,0,11.11,4.51,11.11,13.53,0,11.28-6.88,17.21-15.57,17.21a7.93,7.93,0,0,1-4.78-1.15v7.75c0,2,1,2.09,4.23,2.37v2.14H190.41V65.3c2.2-.17,3.08-.39,3.08-2.15Zm20.18,10c0-7.26-2.59-10.61-6.77-10.61a5.71,5.71,0,0,0-3.24.93V48c0,3.57,1,5.77,3.9,5.77C211.52,53.75,213.67,48.69,213.67,42.2Z"/><path class="cls-3" d="M226.76,52.65l-.6-9.57h2.91c1.37,6.16,5.06,10.62,10.61,10.62,3.91,0,6.44-1.88,6.44-5.28,0-3.58-2.31-5.12-8.42-7-7.31-2.14-11.32-5.72-11.32-12.37,0-7.65,5.82-12.43,14-12.43,5,0,9.19,1.32,11.88,3.3v8.36h-2.47c-1.27-5.56-4.29-9.08-9.41-9.08-3.41,0-5.66,2-5.66,5.12,0,3.57,2.2,5.06,7.86,6.76,7.32,2.26,12.16,5.17,12.16,12.87,0,8.47-6.77,12.37-15,12.37C234.18,56.33,229.34,54.69,226.76,52.65Z"/><path class="cls-3" d="M287.53,49.46c0,1.87.11,2.69,1.87,2.75l1.32.06v2.14l-11.6,1.92h-1.93l.17-5.33c-2,2.53-4.9,5.33-9.79,5.33s-8.31-2.91-8.31-9.23V33.62c0-1.59-.38-2.75-2.14-3.19l-.83-.27v-2l11.61-2.53h1.81l-.33,7V46.11c0,2.8,1.1,4.4,3.74,4.4a9.55,9.55,0,0,0,4.24-1.1V33.62c0-1.59-.39-2.75-2.09-3.19l-.83-.27v-2L286,25.65h1.82l-.28,7Z"/><path class="cls-3" d="M294.74,32.19l-3-1.87V28.78l11.5-3.19h1.92l-.22,5.34a10.83,10.83,0,0,1,9.24-5.34c6.49,0,11.11,4.51,11.11,13.53,0,11.28-6.87,17.21-15.56,17.21a8,8,0,0,1-4.79-1.15v7.75c0,2,1,2.09,4.24,2.37v2.14H291.66V65.3c2.2-.17,3.08-.39,3.08-2.15Zm20.18,10c0-7.26-2.58-10.61-6.76-10.61a5.72,5.72,0,0,0-3.25.93V48c0,3.57,1,5.77,3.91,5.77C312.78,53.75,314.92,48.69,314.92,42.2Z"/><path class="cls-3" d="M329.66,32.19l-3-1.87V28.78l11.49-3.19h1.93l-.22,5.34a10.81,10.81,0,0,1,9.24-5.34c6.49,0,11.1,4.51,11.1,13.53,0,11.28-6.87,17.21-15.56,17.21a7.93,7.93,0,0,1-4.78-1.15v7.75c0,2,1,2.09,4.23,2.37v2.14H326.58V65.3c2.2-.17,3.08-.39,3.08-2.15Zm20.19,10c0-7.26-2.59-10.61-6.77-10.61a5.71,5.71,0,0,0-3.24.93V48c0,3.57,1,5.77,3.9,5.77C347.7,53.75,349.85,48.69,349.85,42.2Z"/><path class="cls-3" d="M375,51.5c0,1.76.88,2,3.08,2.14v2.14H361.73V53.64c2.2-.16,3.08-.38,3.08-2.14v-33l-3-1.55V15.26l11.5-2.53H375Z"/><path class="cls-3" d="M403.36,31.81a4.51,4.51,0,0,0,.44-1.6c0-1.21-.77-1.54-3.63-1.92V26.14h10v2.15c-1.87.6-2.31,1-2.81,2.2L394.84,60.57c-2,4.84-4.07,7.37-7.92,7.37a5,5,0,0,1-4.62-2.31V61.72a19.92,19.92,0,0,0,4.29.55c3.08,0,4.67-.88,5.66-3.19l.88-1.92L380.59,30.49c-.55-1.21-.88-1.6-2.8-2.2V26.14h17.6v2.15c-2.92.38-3.63.71-3.63,1.92a4.77,4.77,0,0,0,.38,1.54l5.78,14Z"/></g></g></svg>