<?xml version="1.0" encoding="utf-8"?>
<!-- Generator: Adobe Illustrator 16.0.0, SVG Export Plug-In . SVG Version: 6.00 Build 0)  -->
<!DOCTYPE svg PUBLIC "-//W3C//DTD SVG 1.1//EN" "http://www.w3.org/Graphics/SVG/1.1/DTD/svg11.dtd">
<svg version="1.1" id="Layer_1" xmlns="http://www.w3.org/2000/svg" xmlns:xlink="http://www.w3.org/1999/xlink" x="0px" y="0px"
	 width="100px" height="100px" viewBox="0 0 100 100" enable-background="new 0 0 100 100" xml:space="preserve">
<g>
	<ellipse fill="#00000F" cx="12.105" cy="50" rx="8.936" ry="8.948"/>
	<path fill="#FFFFFF" d="M16.877,45.329h-6.085c-0.692,0.001-1.367,0.209-1.94,0.597c-0.572,0.389-1.018,0.938-1.276,1.581
		c-0.259,0.642-0.32,1.347-0.177,2.024c0.144,0.677,0.486,1.296,0.982,1.777h1.554c0-0.921,0.366-1.809,1.018-2.459
		c0.651-0.653,1.536-1.02,2.457-1.02c0.25,0.001,0.5,0.028,0.745,0.082c0.63,0.139,1.209,0.451,1.673,0.9h1.055L16.877,45.329z"/>
	<path fill="#FFFFFF" d="M10.793,52.303c0.906-0.002,1.775-0.357,2.422-0.992c0.333-0.324,0.599-0.713,0.78-1.143
		c0.182-0.429,0.274-0.891,0.274-1.356h1.559c0.498,0.482,0.839,1.104,0.981,1.782s0.08,1.385-0.182,2.026
		c-0.26,0.644-0.708,1.19-1.282,1.579c-0.575,0.387-1.252,0.592-1.945,0.591H7.314v-3.479h1.067c0.46,0.453,1.037,0.769,1.666,0.912
		C10.293,52.277,10.542,52.305,10.793,52.303z"/>
	<path d="M26.099,54.146l-0.148-2.377h0.722c0.341,1.53,1.257,2.637,2.634,2.637c0.969,0,1.598-0.465,1.598-1.313
		c0-0.888-0.573-1.271-2.09-1.74c-1.816-0.528-2.81-1.417-2.81-3.069c0-1.902,1.445-3.09,3.476-3.09c1.242,0,2.281,0.328,2.949,0.82
		v2.078h-0.613c-0.315-1.382-1.065-2.256-2.336-2.256c-0.847,0-1.404,0.497-1.404,1.272c0,0.888,0.546,1.258,1.951,1.681
		c1.816,0.562,3.018,1.285,3.018,3.199c0,2.104-1.682,3.074-3.723,3.074C27.941,55.063,26.75,54.652,26.099,54.146z"/>
	<path d="M43.161,49.829c0-0.586-0.19-0.929-0.815-0.929c-0.381,0.019-0.75,0.127-1.08,0.315v4.646c0,0.438,0.137,0.496,0.683,0.535
		v0.53h-3.89v-0.53c0.547-0.043,0.684-0.099,0.684-0.535v-4.032c0-0.586-0.191-0.929-0.807-0.929
		c-0.386,0.01-0.762,0.119-1.093,0.315v4.646c0,0.438,0.151,0.496,0.697,0.535v0.53h-3.972v-0.53
		c0.545-0.043,0.763-0.099,0.763-0.535v-4.797l-0.745-0.465v-0.382l2.846-0.793h0.463l-0.055,1.395
		c0.52-0.746,1.256-1.395,2.482-1.395c1.05,0,1.705,0.425,1.896,1.421c0.263-0.428,0.63-0.783,1.065-1.032
		c0.438-0.249,0.929-0.382,1.431-0.389c1.271,0,1.986,0.746,1.986,2.175v4.262c0,0.438,0.218,0.498,0.745,0.535v0.531H42.48v-0.531
		c0.547-0.041,0.681-0.098,0.681-0.535V49.829z"/>
	<path d="M53.102,53.423c0,0.327,0.039,0.616,0.367,0.616c0.158,0.001,0.314-0.027,0.463-0.082l0.098,0.368
		c-0.232,0.239-0.514,0.431-0.822,0.56c-0.311,0.129-0.643,0.191-0.979,0.186c-0.355,0.021-0.705-0.082-0.992-0.293
		c-0.285-0.207-0.49-0.512-0.58-0.854c-0.221,0.345-0.527,0.625-0.887,0.819c-0.359,0.193-0.764,0.293-1.172,0.29
		c-1.146,0-1.951-0.657-1.951-1.832c0-1.177,0.832-1.685,1.799-2.023l2.172-0.766v-1.405c0-0.629-0.178-1.051-0.709-1.051
		s-0.745,0.438-0.745,1.079c0.008,0.322,0.049,0.643,0.122,0.957l-1.514,0.206c-0.199-0.063-0.373-0.188-0.492-0.359
		c-0.12-0.17-0.182-0.375-0.176-0.583c0-1.242,1.283-1.819,2.937-1.819c1.912,0,3.058,0.601,3.058,2.378L53.102,53.423z
		 M50.619,53.52v-2.524l-0.746,0.285c-0.476,0.18-0.792,0.438-0.792,1.216c0,0.697,0.26,1.218,0.943,1.218
		c0.209-0.01,0.414-0.075,0.59-0.194H50.619L50.619,53.52z"/>
	<path d="M57.43,53.656c0,0.586,0.313,0.641,1.09,0.746v0.531h-4.367v-0.539c0.547-0.043,0.764-0.099,0.764-0.535v-4.797
		l-0.744-0.465v-0.383l2.859-0.793h0.465l-0.057,2.105c0.561-1.599,1.039-2.105,1.898-2.105c0.248-0.015,0.496,0.069,0.684,0.234
		v1.899h-0.326c-0.863,0-1.627,0.027-2.256,0.497L57.43,53.656z"/>
	<path d="M63.365,47.558h1.607v0.745h-1.598v4.524c0,0.655,0.248,0.944,0.777,0.944c0.357-0.008,0.705-0.129,0.994-0.342
		l0.203,0.301c-0.234,0.418-0.58,0.766-0.998,1.002c-0.42,0.236-0.896,0.353-1.377,0.336c-1.254,0-2.129-0.629-2.129-2.236v-4.537
		h-0.779v-0.449c1.111-0.442,2.076-1.186,2.785-2.148h0.533L63.365,47.558z"/>
	<path d="M69.223,53.396c0,0.726,0.367,0.889,1.582,0.957v0.573h-5.254v-0.573c0.912-0.096,0.992-0.205,0.992-0.916v-6.617
		c0-0.711-0.082-0.82-0.992-0.915v-0.574h4.717c2.662,0,3.893,1.243,3.893,2.898c0,1.887-1.299,2.983-4.002,2.983h-0.941
		L69.223,53.396z M69.223,50.514h0.313c1.313,0,2.008-0.875,2.008-2.283c0-1.407-0.777-2.257-2.008-2.257h-0.313V50.514z"/>
	<path d="M77.738,53.656c0,0.587,0.313,0.641,1.092,0.746v0.531h-4.367v-0.539c0.547-0.043,0.766-0.099,0.766-0.535v-4.797
		l-0.746-0.465v-0.383l2.854-0.793h0.465l-0.057,2.106c0.563-1.598,1.037-2.106,1.896-2.106c0.25-0.015,0.496,0.069,0.684,0.234
		v1.899h-0.328c-0.857,0-1.623,0.027-2.252,0.497L77.738,53.656z"/>
	<path d="M80.523,51.387c0-2.296,1.584-3.964,3.822-3.964s3.809,1.437,3.809,3.679c0,2.295-1.584,3.963-3.824,3.963
		C82.092,55.063,80.523,53.629,80.523,51.387z M85.486,51.7c0-2.236-0.313-3.703-1.199-3.703c-0.816,0-1.078,1.053-1.078,2.788
		c0,2.236,0.328,3.704,1.201,3.704c0.811,0,1.068-1.052,1.068-2.789H85.486z"/>
	<path d="M89.262,49.063l-0.744-0.465v-0.382l2.852-0.793h0.479l-0.068,1.335c0.236-0.401,0.57-0.734,0.973-0.967
		c0.402-0.232,0.857-0.356,1.32-0.361c1.611,0,2.758,1.121,2.758,3.363c0,2.802-1.703,4.277-3.861,4.277
		c-0.416,0.031-0.832-0.072-1.188-0.293v1.934c0,0.498,0.248,0.521,1.053,0.59v0.531H88.5v-0.539
		c0.547-0.043,0.766-0.099,0.766-0.534v-7.696H89.262z M94.271,51.548c0-1.804-0.643-2.636-1.68-2.636
		c-0.285-0.006-0.566,0.075-0.807,0.231v3.839c0,0.891,0.248,1.437,0.971,1.437c0.982,0.004,1.504-1.254,1.504-2.867L94.271,51.548z
		"/>
</g>
</svg>
