<?xml version="1.0" encoding="utf-8"?>
<!-- Generator: Adobe Illustrator 16.0.0, SVG Export Plug-In . SVG Version: 6.00 Build 0)  -->
<!DOCTYPE svg PUBLIC "-//W3C//DTD SVG 1.1//EN" "http://www.w3.org/Graphics/SVG/1.1/DTD/svg11.dtd">
<svg version="1.1" id="Layer_1" xmlns="http://www.w3.org/2000/svg" xmlns:xlink="http://www.w3.org/1999/xlink" x="0px" y="0px"
	 width="150px" height="150px" viewBox="3.5 -60 150 150" enable-background="new 3.5 -60 150 150" xml:space="preserve">
<g>
	<ellipse cx="21.856" cy="15" rx="13.356" ry="13.376"/>
	<path fill="#FFFFFF" d="M19.895,18.443c1.354-0.004,2.653-0.537,3.621-1.485c0.499-0.485,0.896-1.066,1.167-1.707
		c0.271-0.641,0.411-1.331,0.411-2.027h2.33c0.743,0.721,1.253,1.649,1.467,2.664c0.213,1.015,0.119,2.07-0.271,3.029
		c-0.39,0.96-1.058,1.781-1.917,2.36c-0.86,0.578-1.872,0.884-2.907,0.882h-9.097v-5.201h1.596c0.687,0.677,1.549,1.149,2.489,1.363
		C19.146,18.403,19.521,18.444,19.895,18.443z"/>
	<path fill="#FFFFFF" d="M28.99,8.018h-9.096c-1.034,0.002-2.043,0.313-2.9,0.893s-1.521,1.403-1.907,2.363
		c-0.387,0.959-0.479,2.013-0.264,3.025c0.214,1.013,0.726,1.938,1.469,2.659h2.322c0-1.38,0.547-2.703,1.521-3.679
		s2.295-1.524,3.672-1.524c0.375,0.002,0.748,0.043,1.114,0.123c0.942,0.207,1.808,0.673,2.5,1.346h1.577L28.99,8.018z"/>
	<path d="M42.773,21.2l-0.222-3.555h1.08c0.508,2.288,1.877,3.941,3.936,3.941c1.451,0,2.39-0.695,2.39-1.961
		c0-1.327-0.857-1.899-3.124-2.602c-2.715-0.791-4.199-2.117-4.199-4.588c0-2.843,2.159-4.619,5.194-4.619
		c1.855,0,3.409,0.49,4.407,1.227v3.105h-0.917c-0.471-2.065-1.592-3.373-3.491-3.373c-1.266,0-2.1,0.743-2.1,1.902
		c0,1.325,0.816,1.88,2.916,2.512c2.716,0.84,4.512,1.921,4.512,4.782c0,3.146-2.512,4.595-5.565,4.595
		C45.526,22.567,43.746,21.954,42.773,21.2z"/>
	<path d="M68.277,14.744c0-0.877-0.286-1.391-1.22-1.391c-0.567,0.029-1.121,0.191-1.614,0.473v6.944
		c0,0.654,0.204,0.744,1.021,0.799v0.795h-5.814v-0.795c0.816-0.063,1.021-0.145,1.021-0.799v-6.026
		c0-0.877-0.286-1.391-1.206-1.391c-0.575,0.016-1.137,0.178-1.632,0.473v6.944c0,0.654,0.227,0.744,1.042,0.799v0.795h-5.936
		v-0.795c0.813-0.063,1.139-0.145,1.139-0.799V13.6l-1.113-0.695v-0.571l4.251-1.186h0.694l-0.082,2.084
		c0.775-1.113,1.877-2.084,3.71-2.084c1.57,0,2.549,0.636,2.834,2.124c0.394-0.64,0.941-1.17,1.594-1.543
		c0.653-0.371,1.389-0.57,2.139-0.581c1.9,0,2.968,1.114,2.968,3.252v6.371c0,0.654,0.327,0.744,1.113,0.799v0.795h-5.924v-0.795
		c0.816-0.063,1.016-0.145,1.016-0.799V14.744z"/>
	<path d="M83.137,20.115c0,0.491,0.059,0.921,0.549,0.921c0.236,0.002,0.472-0.04,0.693-0.122l0.145,0.55
		c-0.349,0.361-0.768,0.646-1.23,0.837s-0.961,0.287-1.463,0.278c-0.529,0.03-1.053-0.123-1.481-0.437s-0.735-0.765-0.867-1.28
		c-0.331,0.515-0.788,0.936-1.326,1.226c-0.539,0.289-1.142,0.438-1.753,0.432c-1.714,0-2.917-0.981-2.917-2.739
		c0-1.757,1.244-2.515,2.69-3.023l3.246-1.145v-2.1c0-0.939-0.267-1.57-1.061-1.57c-0.793,0-1.113,0.652-1.113,1.612
		c0.012,0.48,0.073,0.96,0.182,1.43l-2.263,0.309c-0.297-0.095-0.555-0.283-0.735-0.537c-0.181-0.254-0.273-0.56-0.263-0.871
		c0-1.858,1.918-2.72,4.389-2.72c2.856,0,4.571,0.898,4.571,3.555L83.137,20.115z M79.426,20.261v-3.775l-1.113,0.427
		c-0.712,0.269-1.184,0.655-1.184,1.817c0,1.045,0.39,1.821,1.41,1.821c0.315-0.015,0.621-0.115,0.882-0.29H79.426z"/>
	<path d="M89.604,20.465c0,0.876,0.471,0.958,1.632,1.115v0.794h-6.529v-0.805c0.817-0.064,1.143-0.146,1.143-0.799v-7.172
		l-1.112-0.695v-0.571l4.273-1.186h0.693l-0.082,3.146c0.84-2.389,1.551-3.146,2.839-3.146c0.372-0.022,0.739,0.104,1.021,0.349
		v2.84h-0.49c-1.287,0-2.43,0.04-3.369,0.742L89.604,20.465z"/>
	<path d="M98.48,11.352h2.4v1.114h-2.385v6.763c0,0.979,0.371,1.411,1.16,1.411c0.537-0.012,1.056-0.191,1.486-0.512l0.306,0.448
		c-0.351,0.627-0.867,1.146-1.494,1.5c-0.627,0.354-1.338,0.528-2.056,0.504c-1.877,0-3.184-0.941-3.184-3.345v-6.782h-1.164v-0.672
		c1.659-0.659,3.102-1.771,4.162-3.21h0.797L98.48,11.352z"/>
	<path d="M107.234,20.076c0,1.085,0.552,1.329,2.366,1.431v0.858h-7.854v-0.858c1.365-0.142,1.484-0.306,1.484-1.367v-9.891
		c0-1.063-0.123-1.227-1.484-1.368V8.022h7.049c3.98,0,5.818,1.858,5.818,4.332c0,2.821-1.941,4.459-5.981,4.459h-1.405
		L107.234,20.076z M107.234,15.767h0.467c1.959,0,3.001-1.308,3.001-3.412c0-2.103-1.163-3.373-3.001-3.373h-0.467V15.767z"/>
	<path d="M119.966,20.465c0,0.877,0.466,0.958,1.632,1.115v0.795h-6.529v-0.806c0.816-0.064,1.143-0.146,1.143-0.799v-7.172
		l-1.113-0.695v-0.571l4.264-1.186h0.693l-0.082,3.147c0.839-2.39,1.551-3.147,2.836-3.147c0.372-0.022,0.738,0.103,1.02,0.349v2.84
		h-0.49c-1.284,0-2.427,0.041-3.365,0.742L119.966,20.465z"/>
	<path d="M124.129,17.074c0-3.434,2.365-5.927,5.713-5.927c3.346,0,5.692,2.147,5.692,5.499c0,3.43-2.369,5.922-5.714,5.922
		C126.473,22.568,124.129,20.425,124.129,17.074z M131.547,17.542c0-3.344-0.467-5.536-1.795-5.536
		c-1.219,0-1.609,1.575-1.609,4.169c0,3.344,0.488,5.535,1.796,5.535c1.21,0,1.595-1.57,1.595-4.168H131.547z"/>
	<path d="M137.188,13.6l-1.113-0.695v-0.571l4.264-1.186h0.713l-0.1,1.995c0.351-0.598,0.85-1.097,1.452-1.444
		c0.602-0.347,1.28-0.533,1.976-0.539c2.407,0,4.12,1.675,4.12,5.026c0,4.188-2.547,6.395-5.773,6.395
		c-0.621,0.045-1.243-0.108-1.774-0.438v2.89c0,0.744,0.371,0.777,1.572,0.882v0.796h-6.479v-0.807
		c0.816-0.064,1.143-0.146,1.143-0.799V13.6z M144.676,17.315c0-2.697-0.958-3.942-2.509-3.942
		c-0.426-0.008-0.848,0.112-1.204,0.346v5.74c0,1.331,0.37,2.147,1.45,2.147c1.469,0.004,2.247-1.876,2.247-4.288L144.676,17.315z"
		/>
</g>
</svg>
