<?xml version="1.0" encoding="utf-8"?>
<!-- Generator: Adobe Illustrator 16.0.0, SVG Export Plug-In . SVG Version: 6.00 Build 0)  -->
<!DOCTYPE svg PUBLIC "-//W3C//DTD SVG 1.1//EN" "http://www.w3.org/Graphics/SVG/1.1/DTD/svg11.dtd">
<svg version="1.1" id="Layer_1" xmlns="http://www.w3.org/2000/svg" xmlns:xlink="http://www.w3.org/1999/xlink" x="0px" y="0px"
	 width="150px" height="150px" viewBox="0 0 150 150" enable-background="new 0 0 150 150" xml:space="preserve">
<g>
	<path fill="#302827" d="M52.296,78.213c0-1.296-0.148-1.498-1.819-1.7v-1.046h8.192v1.046c-1.646,0.202-1.801,0.398-1.801,1.7
		v4.144c-1.725,1.101-4.12,1.671-6.796,1.671c-5.921,0.006-9.041-3.668-9.041-8.566c0-5.844,4.268-9.464,9.541-9.464
		c2.271,0,4.196,0.523,5.647,1.468l0.077,4.369h-1.219c-0.624-2.972-1.974-4.595-4.315-4.595c-3.199,0-4.548,3.317-4.548,7.544
		c0,4.245,1.45,7.966,4.548,7.966c0.624,0,1.069-0.048,1.545-0.298v-4.238H52.296z"/>
	<path fill="#302827" d="M71.6,75.544v0.624h-7.966c-0.048,2.973,1.599,4.815,3.87,4.815c1.599,0,2.77-0.571,3.721-1.819l0.47,0.297
		c-0.672,2.747-2.598,4.566-5.742,4.566c-3.698,0-6.492-2.474-6.492-6.664c0-4.447,3.067-7.295,6.664-7.295
		C69.751,70.074,71.6,72.369,71.6,75.544z M63.657,75.015h3.995c0-2.419-0.47-3.894-1.819-3.894
		C64.454,71.121,63.782,72.696,63.657,75.015z"/>
	<path fill="#302827" d="M78.121,70.325h2.919v1.349h-2.919v8.264c0,1.2,0.47,1.724,1.421,1.724c0.648,0,1.2-0.22,1.802-0.624
		l0.374,0.547c-0.951,1.545-2.348,2.449-4.346,2.449c-2.294,0-3.894-1.146-3.894-4.096v-8.264h-1.421v-0.82
		c1.998-0.749,3.799-2.199,5.095-3.917h0.969V70.325z"/>
	<path fill="#302827" d="M82.115,83.783v-1.046c1.671-0.173,1.82-0.374,1.82-1.671V68.976c0-1.296-0.149-1.499-1.82-1.671v-1.052
		h8.216c6.914,0,10.166,3.698,10.166,8.566c0,5.648-3.745,8.964-9.589,8.964H82.115z M88.834,67.43v13.436
		c0,1.475,0.57,1.748,1.7,1.748h0.226c2.817,0,4.666-2.871,4.666-7.319c0-4.797-2.122-7.865-5.944-7.865H88.834z"/>
	<path fill="#302827" d="M101.673,77.314c0-4.196,2.896-7.24,6.992-7.24c4.119,0,6.967,2.622,6.967,6.717
		c0,4.197-2.895,7.241-6.991,7.241C104.516,84.033,101.673,81.412,101.673,77.314L101.673,77.314z M110.733,77.892
		c0-4.096-0.571-6.765-2.2-6.765c-1.497,0-1.973,1.92-1.973,5.095c0,4.096,0.6,6.765,2.199,6.765
		C110.265,82.986,110.733,81.061,110.733,77.892z"/>
	<path fill="#302827" d="M126.273,74.545c0-1.1-0.374-1.748-1.67-1.748c-0.802,0-1.498,0.226-2.146,0.547v8.489
		c0,0.797,0.352,0.898,1.35,0.97v0.969h-7.342v-0.969c0.998-0.078,1.397-0.173,1.397-0.97v-8.762l-1.374-0.85v-0.702l5.22-1.451
		h0.85l-0.101,2.497c0.951-1.201,2.395-2.497,4.643-2.497c2.419,0,3.799,1.35,3.799,4.096v7.664c0,0.795,0.397,0.896,1.396,0.969
		v0.969h-7.342v-0.969c0.999-0.078,1.326-0.174,1.326-0.969L126.273,74.545z"/>
	<path fill="#302827" d="M144.905,75.544v0.624h-7.967c-0.048,2.973,1.601,4.815,3.87,4.815c1.6,0,2.771-0.571,3.722-1.819
		l0.47,0.297c-0.678,2.747-2.598,4.566-5.742,4.566c-3.697,0-6.492-2.474-6.492-6.664c0-4.447,3.067-7.295,6.664-7.295
		C143.057,70.074,144.905,72.369,144.905,75.544z M136.963,75.015h3.995c0-2.419-0.47-3.894-1.819-3.894
		C137.759,71.121,137.087,72.696,136.963,75.015z"/>
	<path fill="#302827" d="M18.507,88.504C11.058,88.504,5,82.451,5,75.003c0-7.449,6.058-13.506,13.507-13.506v4.625
		c-4.899,0-8.882,3.983-8.882,8.881s3.982,8.882,8.882,8.882c4.898,0,8.881-3.983,8.881-8.882c0-1.165-0.226-2.307-0.66-3.365
		L18.53,80.08l-5.838-5.838l3.27-3.27l2.515,2.515l8.799-9.066l1.646,1.991c1.985,2.408,3.085,5.463,3.085,8.59
		C32.007,82.451,25.949,88.504,18.507,88.504z"/>
</g>
</svg>
